<svg id="Layer_1" enable-background="new 0 0 256 256" height="512" viewBox="0 0 256 256" width="512" xmlns="http://www.w3.org/2000/svg"><g><g><path d="m84.364 55.179-10.426-24.647h-57.615c-6.805 0-12.323 5.517-12.323 12.323v12.324 33.616 124.35c0 6.806 5.518 12.323 12.323 12.323h198.707c6.806 0 12.323-5.517 12.323-12.323v-145.643c0-6.806-5.517-12.323-12.323-12.323z" fill="#fcc24c"/></g><g><g><path d="m215.03 55.179h-10.776c6.806 0 12.323 5.517 12.323 12.323v145.643c0 6.806-5.517 12.323-12.323 12.323h10.776c6.806 0 12.323-5.517 12.323-12.323v-145.643c0-6.806-5.517-12.323-12.323-12.323z" fill="#dea42e"/></g></g><g><path d="m14.776 213.145v-124.35-33.616-12.324c0-6.806 5.518-12.323 12.323-12.323h-10.776c-6.805 0-12.323 5.517-12.323 12.323v12.323 33.616 124.35c0 6.806 5.518 12.323 12.323 12.323h10.776c-6.806.001-12.323-5.516-12.323-12.322z" fill="#fce06a"/></g><g><path d="m215.03 227.468h-198.707c-7.898 0-14.323-6.426-14.323-14.323v-170.29c0-7.897 6.425-14.323 14.323-14.323h57.615c.804 0 1.529.48 1.842 1.221l9.91 23.426h129.34c7.898 0 14.323 6.426 14.323 14.323v145.643c0 7.897-6.425 14.323-14.323 14.323zm-198.707-194.936c-5.692 0-10.323 4.631-10.323 10.323v170.289c0 5.692 4.631 10.323 10.323 10.323h198.707c5.692 0 10.323-4.631 10.323-10.323v-145.642c0-5.692-4.631-10.323-10.323-10.323h-130.666c-.803 0-1.529-.48-1.842-1.221l-9.91-23.426z" fill="#690589"/></g><g><path d="m239.676 225.468h-198.706c-6.806 0-12.323-5.517-12.323-12.323v-120.996c0-6.806 5.517-12.324 12.323-12.324h198.706c6.806 0 12.324 5.517 12.324 12.324v120.996c0 6.806-5.518 12.323-12.324 12.323z" fill="#fcc24c"/></g><g><path d="m239.676 79.825h-10.776c6.806 0 12.324 5.518 12.324 12.324v120.996c0 6.806-5.518 12.323-12.324 12.323h10.776c6.806 0 12.324-5.517 12.324-12.323v-120.996c0-6.806-5.518-12.324-12.324-12.324z" fill="#dea42e"/></g><g><path d="m40.971 225.468h10.776c-6.806 0-12.324-5.518-12.324-12.324v-120.995c0-6.806 5.518-12.323 12.324-12.323h-10.776c-6.806 0-12.324 5.517-12.324 12.323v120.996c0 6.805 5.518 12.323 12.324 12.323z" fill="#fce06a"/></g><g><path d="m239.676 227.468h-198.706c-7.898 0-14.323-6.426-14.323-14.323v-120.996c0-7.898 6.425-14.324 14.323-14.324h198.706c7.898 0 14.324 6.426 14.324 14.324v120.995c0 7.898-6.426 14.324-14.324 14.324zm-198.706-145.643c-5.692 0-10.323 4.632-10.323 10.324v120.995c0 5.692 4.631 10.323 10.323 10.323h198.706c5.692 0 10.324-4.631 10.324-10.323v-120.995c0-5.692-4.631-10.324-10.324-10.324z" fill="#690589"/></g><g><path d="m40.905 130.814c-1.104 0-2-.896-2-2v-12c0-1.104.896-2 2-2s2 .896 2 2v12c0 1.105-.896 2-2 2z" fill="#690589"/></g><g><g><path d="m198.183 161.642v-17.991h-9.956c-1.157-5.655-3.389-10.915-6.463-15.571l7.049-7.049-12.722-12.722-7.049 7.049c-4.656-3.074-9.916-5.306-15.571-6.462v-9.956h-17.991v9.956c-5.655 1.156-10.915 3.389-15.571 6.462l-7.049-7.049-12.722 12.722 7.049 7.049c-3.074 4.656-5.306 9.916-6.463 15.571h-9.954v17.991h9.956c1.157 5.655 3.389 10.915 6.463 15.571l-7.049 7.049 12.722 12.722 7.049-7.049c4.656 3.074 9.916 5.306 15.571 6.462v9.956h17.991v-9.956c5.655-1.156 10.915-3.389 15.571-6.462l7.049 7.049 12.722-12.722-7.049-7.049c3.074-4.656 5.306-9.916 6.463-15.571zm-53.707 20.133c-16.087 0-29.128-13.041-29.128-29.128s13.041-29.128 29.128-29.128 29.129 13.041 29.129 29.128-13.041 29.128-29.129 29.128z" fill="#526faa"/></g></g><g><g><path d="m153.472 208.352h-17.991c-1.105 0-2-.895-2-2v-8.352c-4.69-1.133-9.148-2.983-13.29-5.518l-5.915 5.916c-.751.75-2.079.75-2.829 0l-12.722-12.723c-.781-.781-.781-2.047 0-2.828l5.915-5.915c-2.535-4.143-4.385-8.601-5.518-13.29h-8.352c-1.104 0-2-.895-2-2v-17.991c0-1.104.896-2 2-2h8.353c1.133-4.69 2.984-9.148 5.518-13.29l-5.915-5.916c-.781-.781-.781-2.047 0-2.828l12.722-12.722c.375-.375.884-.586 1.414-.586.531 0 1.039.211 1.415.586l5.915 5.916c4.143-2.535 8.6-4.386 13.29-5.518v-8.353c0-1.104.895-2 2-2h17.991c1.105 0 2 .896 2 2v8.354c4.69 1.132 9.147 2.982 13.29 5.518l5.915-5.916c.75-.751 2.078-.751 2.829 0l12.722 12.722c.781.781.781 2.047 0 2.828l-5.915 5.916c2.534 4.141 4.385 8.599 5.518 13.29h8.353c1.104 0 2 .896 2 2v17.991c0 1.105-.896 2-2 2h-8.353c-1.133 4.69-2.984 9.147-5.518 13.29l5.915 5.915c.781.781.781 2.047 0 2.828l-12.722 12.723c-.75.75-2.078.75-2.829 0l-5.915-5.916c-4.142 2.534-8.6 4.385-13.29 5.518v8.352c-.001 1.104-.896 1.999-2.001 1.999zm-15.991-4h13.991v-7.955c0-.95.668-1.769 1.599-1.959 5.308-1.087 10.311-3.163 14.87-6.173.792-.522 1.844-.417 2.516.255l5.635 5.636 9.893-9.895-5.635-5.635c-.672-.672-.778-1.724-.255-2.516 3.01-4.559 5.086-9.562 6.172-14.869.19-.932 1.009-1.6 1.96-1.6h7.956v-13.991h-7.956c-.95 0-1.769-.668-1.96-1.6-1.086-5.309-3.163-10.312-6.172-14.868-.523-.793-.417-1.845.255-2.517l5.635-5.636-9.893-9.894-5.635 5.636c-.671.672-1.724.779-2.516.255-4.56-3.011-9.562-5.087-14.87-6.173-.931-.189-1.599-1.009-1.599-1.959v-7.956h-13.991v7.956c0 .95-.669 1.77-1.599 1.959-5.307 1.086-10.31 3.162-14.87 6.173-.792.525-1.845.418-2.516-.255l-5.635-5.636-9.893 9.894 5.635 5.636c.672.672.778 1.724.255 2.516-3.01 4.559-5.086 9.561-6.172 14.869-.19.932-1.009 1.6-1.959 1.6h-7.957v13.991h7.956c.95 0 1.769.668 1.959 1.6 1.086 5.306 3.162 10.309 6.172 14.869.523.793.417 1.844-.255 2.516l-5.635 5.635 9.893 9.895 5.635-5.636c.671-.672 1.724-.778 2.516-.255 4.56 3.01 9.564 5.086 14.87 6.173.931.19 1.599 1.009 1.599 1.959v7.955zm6.996-20.578c-17.164 0-31.128-13.964-31.128-31.128s13.964-31.128 31.128-31.128 31.128 13.964 31.128 31.128c0 17.165-13.964 31.128-31.128 31.128zm0-58.255c-14.958 0-27.128 12.17-27.128 27.128s12.17 27.128 27.128 27.128 27.128-12.17 27.128-27.128-12.17-27.128-27.128-27.128z" fill="#690589"/></g></g></g></svg>