<svg id="Capa_1" enable-background="new 0 0 512 512" height="512" viewBox="0 0 512 512" width="512" xmlns="http://www.w3.org/2000/svg"><path d="m25.15 407.938 21.855 37.854c5.156 8.93 16.614 11.999 25.544 6.845l19.953-11.52c14.488 13.268 31.817 23.282 50.479 29.17v23.013c0 10.311 8.389 18.7 18.699 18.7h43.71c10.312 0 18.7-8.389 18.7-18.7v-23.013c18.66-5.887 35.989-15.902 50.478-29.17l19.954 11.52c8.932 5.156 20.389 2.084 25.544-6.845l21.854-37.855c5.155-8.93 2.085-20.389-6.844-25.544l-19.936-11.509c4.227-19.164 4.23-39.14 0-58.307l19.936-11.51c8.949-5.166 12.012-16.592 6.844-25.544l-21.854-37.855c-5.167-8.952-16.593-12.012-25.544-6.844l-19.954 11.52c-14.489-13.27-31.819-23.284-50.478-29.17v-23.013c0-10.311-8.389-18.7-18.7-18.7h-43.71c-10.311 0-18.699 8.389-18.699 18.7v23.013c-18.658 5.886-35.987 15.9-50.478 29.17l-19.954-11.52c-8.949-5.168-20.377-2.107-25.544 6.844l-21.855 37.855c-5.155 8.929-2.085 20.388 6.845 25.544l19.936 11.509c-4.158 18.844-4.299 38.821-.001 58.308l-19.935 11.509c-8.93 5.156-12 16.615-6.845 25.545zm14.345-12.554 22.872-13.205c4.003-2.31 6.02-7.066 4.904-11.565-4.683-18.904-4.683-38.862 0-57.766 1.114-4.499-.901-9.254-4.903-11.565l-22.872-13.205c-1.768-1.021-2.375-3.288-1.355-5.055l21.855-37.855c1.022-1.769 3.282-2.376 5.054-1.354l22.893 13.217c4.008 2.313 9.135 1.679 12.473-1.541 14.048-13.542 31.334-23.531 49.992-28.889 4.459-1.282 7.574-5.406 7.574-10.03v-26.41c0-2.04 1.659-3.7 3.699-3.7h43.71c2.04 0 3.7 1.66 3.7 3.7v26.41c0 4.623 3.114 8.748 7.575 10.031 18.657 5.358 35.944 15.348 49.989 28.888 3.34 3.221 8.469 3.855 12.473 1.542l22.895-13.217c1.768-1.021 4.031-.417 5.054 1.354l21.854 37.855c1.021 1.767.413 4.034-1.354 5.054l-22.874 13.207c-4.001 2.311-6.017 7.066-4.902 11.564 4.683 18.91 4.683 38.854.001 57.765-1.116 4.5.9 9.256 4.902 11.566l22.873 13.206c1.767 1.02 2.373 3.288 1.354 5.054l-21.854 37.854c-1.021 1.766-3.286 2.375-5.054 1.354l-22.894-13.217c-4.004-2.313-9.134-1.679-12.473 1.541-14.046 13.541-31.332 23.53-49.988 28.888-4.461 1.28-7.577 5.404-7.577 10.031v26.409c0 2.04-1.66 3.7-3.7 3.7h-43.71c-2.04 0-3.699-1.66-3.699-3.7v-26.41c0-4.627-3.117-8.752-7.576-10.03-18.657-5.358-35.943-15.348-49.989-28.888-3.334-3.216-8.461-3.857-12.473-1.542l-22.894 13.218c-1.769 1.02-4.034.411-5.054-1.354l-21.856-37.856c-1.019-1.767-.412-4.034 1.355-5.054z"/><path d="m241.672 49.457-9.958-17.248c-3.474-6.017-11.195-8.087-17.217-4.613l-6.563 3.79c-5.776-4.819-12.364-8.626-19.403-11.214v-7.567c0-6.951-5.654-12.605-12.604-12.605h-19.916c-6.949 0-12.604 5.654-12.604 12.603v7.567c-7.04 2.588-13.628 6.396-19.404 11.215l-6.563-3.79c-6.031-3.482-13.732-1.421-17.216 4.613l-9.958 17.248c-3.475 6.018-1.405 13.741 4.613 17.216l6.556 3.785c-1.278 7.412-1.279 15 0 22.414l-6.555 3.785c-6.033 3.482-8.098 11.183-4.614 17.217l9.958 17.248c3.476 6.019 11.199 8.087 17.216 4.613l6.563-3.79c5.776 4.819 12.364 8.626 19.404 11.214v7.567c0 6.949 5.654 12.603 12.604 12.603h19.916c6.949 0 12.604-5.654 12.604-12.603v-7.567c7.039-2.588 13.627-6.396 19.403-11.214l6.565 3.791c6.02 3.473 13.742 1.402 17.215-4.614l9.958-17.248c3.475-6.018 1.405-13.741-4.613-17.216l-6.557-3.786c1.279-7.404 1.281-14.998 0-22.414l6.557-3.786c6.019-3.474 8.088-11.196 4.613-17.214zm-26.691 20.03c1.909 7.7 2.041 16.123-.002 24.364-.938 3.804.772 7.826 4.158 9.779l8.347 4.819-7.562 13.097-8.356-4.826c-3.392-1.957-7.732-1.423-10.557 1.299-5.923 5.709-13.209 9.92-21.068 12.178-3.774 1.083-6.41 4.576-6.41 8.496v9.637h-15.123v-9.637c0-3.918-2.635-7.411-6.407-8.495-7.863-2.258-15.149-6.47-21.071-12.179-2.826-2.722-7.166-3.256-10.558-1.298l-8.355 4.824-7.562-13.097 8.351-4.821c3.389-1.959 5.095-5.984 4.151-9.785-1.949-7.863-1.999-16.289-.001-24.353.944-3.805-.762-7.83-4.154-9.791l-8.347-4.819 7.562-13.097 8.353 4.822c3.392 1.96 7.733 1.428 10.561-1.296 5.922-5.709 13.208-9.92 21.072-12.178 3.771-1.084 6.406-4.577 6.406-8.495v-9.635h15.123v9.637c0 3.919 2.636 7.413 6.407 8.495 7.861 2.257 15.147 6.469 21.071 12.179 2.825 2.722 7.168 3.256 10.558 1.297l8.355-4.824 7.562 13.097-8.346 4.818c-3.387 1.954-5.097 5.976-4.158 9.788z"/><path d="m165.969 45.024c-20.204 0-36.641 16.437-36.641 36.641s16.437 36.641 36.641 36.641 36.641-16.437 36.641-36.641-16.437-36.641-36.641-36.641zm0 58.282c-11.933 0-21.641-9.708-21.641-21.641s9.708-21.641 21.641-21.641 21.641 9.708 21.641 21.641-9.708 21.641-21.641 21.641z"/><path d="m130.512 341.73c0 29.237 23.786 53.023 53.023 53.023 29.236 0 53.022-23.786 53.022-53.023s-23.786-53.023-53.022-53.023c-29.237.001-53.023 23.787-53.023 53.023zm53.024-38.022c20.966 0 38.022 17.057 38.022 38.023s-17.057 38.023-38.022 38.023-38.023-17.057-38.023-38.023 17.057-38.023 38.023-38.023z"/><path d="m183.536 424.354c45.559 0 82.624-37.065 82.624-82.624 0-38.4-26.063-71.44-63.383-80.349-4.031-.967-8.074 1.525-9.036 5.554s1.524 8.075 5.554 9.036c30.537 7.29 51.865 34.331 51.865 65.759 0 37.288-30.336 67.624-67.624 67.624s-67.625-30.336-67.625-67.624c0-31.428 21.328-58.469 51.866-65.759 4.029-.961 6.516-5.007 5.554-9.036-.962-4.028-5.003-6.515-9.036-5.554-37.319 8.908-63.384 41.949-63.384 80.349 0 45.56 37.065 82.624 82.625 82.624z"/><path d="m449.848 55.729-13.31 7.684c-10.206-9.072-22.222-16.015-35.131-20.302v-15.349c0-8.648-7.035-15.684-15.684-15.684h-31.942c-8.648 0-15.685 7.036-15.685 15.684v15.349c-12.909 4.287-24.924 11.23-35.13 20.302l-13.31-7.684c-7.505-4.335-17.089-1.77-21.426 5.74l-15.971 27.662c-4.324 7.489-1.75 17.101 5.74 21.427l13.298 7.677c-1.366 6.655-2.057 13.462-2.057 20.29 0 6.827.69 13.634 2.057 20.29l-13.299 7.678c-7.489 4.325-10.063 13.936-5.739 21.425l15.971 27.663c4.334 7.506 13.919 10.078 21.425 5.741l13.311-7.684c10.205 9.071 22.22 16.014 35.13 20.302v15.349c0 8.648 7.036 15.684 15.685 15.684h31.942c8.648 0 15.684-7.036 15.684-15.684v-15.349c12.91-4.287 24.925-11.23 35.131-20.302l13.31 7.684c7.486 4.323 17.1 1.749 21.426-5.741l15.972-27.664c4.322-7.49 1.747-17.101-5.742-21.424l-13.301-7.68c.092-.452.183-.912.272-1.38.776-4.068-1.892-7.997-5.96-8.773-4.069-.779-7.997 1.891-8.774 5.96-.309 1.616-.631 3.098-.984 4.526-1.03 4.154.832 8.548 4.532 10.688l16.715 9.65c.327.189.439.608.251.935l-15.97 27.662c-.188.328-.609.441-.937.251l-16.727-9.657c-3.703-2.139-8.442-1.556-11.528 1.419-10.029 9.668-22.369 16.799-35.685 20.623-4.122 1.182-7.001 4.994-7.001 9.271v19.3c0 .377-.307.684-.684.684h-31.942c-.378 0-.685-.307-.685-.684v-19.3c0-4.277-2.879-8.09-6.998-9.271-13.317-3.825-25.657-10.957-35.687-20.624-3.086-2.975-7.825-3.56-11.525-1.421l-16.731 9.659c-.162.094-.337.117-.518.068-.182-.049-.322-.156-.416-.319l-15.971-27.664c-.188-.327-.076-.746.25-.935l16.715-9.65c3.7-2.136 5.564-6.531 4.534-10.685-1.664-6.717-2.508-13.655-2.508-20.622 0-6.966.844-13.904 2.507-20.62 1.03-4.156-.833-8.551-4.533-10.687l-16.714-9.649c-.327-.189-.44-.608-.251-.936l15.971-27.664c.094-.163.234-.27.415-.318.185-.049.356-.025.52.068l16.728 9.657c3.703 2.139 8.442 1.556 11.528-1.419 10.029-9.667 22.369-16.799 35.687-20.624 4.12-1.184 6.998-4.996 6.998-9.271v-19.3c0-.377.307-.684.685-.684h31.942c.377 0 .684.307.684.684v19.3c0 4.275 2.878 8.087 6.998 9.271 13.318 3.825 25.658 10.956 35.688 20.624 3.086 2.975 7.825 3.56 11.525 1.421l16.729-9.659c.328-.189.746-.075.936.25l15.971 27.663c.094.163.117.338.068.52s-.156.321-.319.416l-16.719 9.653c-3.696 2.137-5.559 6.531-4.529 10.684.354 1.43.677 2.911.985 4.527.777 4.069 4.701 6.737 8.774 5.96 4.068-.777 6.736-4.705 5.96-8.773-.09-.469-.181-.929-.272-1.381l13.3-7.679c7.508-4.334 10.077-13.916 5.742-21.425l-15.971-27.664c-4.325-7.49-13.939-10.064-21.426-5.74z"/><path d="m369.753 76.126c-34.406 0-62.398 27.992-62.398 62.399s27.992 62.399 62.398 62.399c34.407 0 62.399-27.992 62.399-62.399s-27.992-62.399-62.399-62.399zm0 109.798c-26.136 0-47.398-21.263-47.398-47.399s21.263-47.399 47.398-47.399 47.399 21.263 47.399 47.399-21.264 47.399-47.399 47.399z"/></svg>