<?xml version="1.0" encoding="iso-8859-1"?>
<!-- Generator: Adobe Illustrator 19.0.0, SVG Export Plug-In . SVG Version: 6.00 Build 0)  -->
<svg version="1.1" id="Capa_1" xmlns="http://www.w3.org/2000/svg" xmlns:xlink="http://www.w3.org/1999/xlink" x="0px" y="0px"
	 viewBox="0 0 469.162 469.162" style="enable-background:new 0 0 469.162 469.162;" xml:space="preserve">
<g>
	<g>
		<g>
			<path d="M234.581,363.227c-26.712-0.025-49.4,19.548-53.29,45.976h106.58C283.981,382.775,261.293,363.201,234.581,363.227z"/>
			<path d="M462.891,245.676l-61.649-134.269h28.735c4.328,0,7.837-3.509,7.837-7.837s-3.509-7.837-7.837-7.837H278.989
				c-5.352-24.526-29.572-40.07-54.098-34.718c-17.365,3.789-30.929,17.353-34.718,34.718H39.185c-4.328,0-7.837,3.509-7.837,7.837
				s3.509,7.837,7.837,7.837H67.92L6.271,245.676c-3.708,0.756-6.346,4.053-6.269,7.837c-0.001,44.521,35.938,80.692,80.457,80.98
				c44.404-0.281,80.411-36.056,80.98-80.457c-0.067-4.131-2.823-7.734-6.792-8.882L92.998,111.406h96.653
				c3.034,18.151,16.6,32.745,34.482,37.094v198.008h15.673V149.545c20.226-2.507,36.387-18.03,39.706-38.139h96.653
				l-61.649,133.747c-3.888,0.939-6.668,4.361-6.792,8.359c-0.001,44.521,35.938,80.692,80.457,80.98
				c44.488-0.563,80.416-36.491,80.98-80.98C469.237,249.729,466.599,246.432,462.891,245.676z M137.406,247.243H23.512
				L80.459,124.99L137.406,247.243z M331.757,247.243l56.947-122.253l56.947,122.253H331.757z"/>
		</g>
	</g>
</g>
<g>
</g>
<g>
</g>
<g>
</g>
<g>
</g>
<g>
</g>
<g>
</g>
<g>
</g>
<g>
</g>
<g>
</g>
<g>
</g>
<g>
</g>
<g>
</g>
<g>
</g>
<g>
</g>
<g>
</g>
</svg>
