<svg height="512pt" viewBox="-16 0 512 512" width="512pt" xmlns="http://www.w3.org/2000/svg"><path d="m330 502v-186h-60l55.71875-191.75c2.542969-8.460938 10.332031-14.25 19.160156-14.25h50.242188c8.828125 0 16.617187 5.789062 19.160156 14.25l55.71875 191.75h-60v186c-9.679688 0-70.257812 0-80 0zm0 0" fill="#ff5d5d"/><path d="m410 50c0 22.089844-17.910156 40-40 40s-40-17.910156-40-40 17.910156-40 40-40 40 17.910156 40 40zm0 0" fill="#ff5d5d"/><path d="m50 502v-206h-20c-11.050781 0-20-8.949219-20-20v-126c0-22.089844 17.910156-40 40-40h100c22.089844 0 40 17.910156 40 40v126c0 11.050781-8.949219 20-20 20h-20v206c-27.101562 0-84.039062 0-100 0zm0 0" fill="#4dbaf6"/><path d="m140 50c0 22.089844-17.910156 40-40 40s-40-17.910156-40-40 17.910156-40 40-40 40 17.910156 40 40zm0 0" fill="#4dbaf6"/><path d="m370 326c5.519531 0 10-4.480469 10-10s-4.480469-10-10-10-10 4.480469-10 10 4.480469 10 10 10zm0 0"/><path d="m100 326c5.519531 0 10-4.480469 10-10s-4.480469-10-10-10-10 4.480469-10 10 4.480469 10 10 10zm0 0"/><path d="m150 50c0-27.570312-22.429688-50-50-50s-50 22.429688-50 50 22.429688 50 50 50 50-22.429688 50-50zm-50 30c-16.542969 0-30-13.457031-30-30s13.457031-30 30-30 30 13.457031 30 30-13.457031 30-30 30zm0 0"/><path d="m30 306h10v196c0 5.523438 4.476562 10 10 10h100c5.523438 0 10-4.476562 10-10v-196h10c16.542969 0 30-13.457031 30-30v-126c0-27.570312-22.429688-50-50-50h-100c-27.570312 0-50 22.429688-50 50v126c0 16.542969 13.457031 30 30 30zm-10-156c0-16.542969 13.457031-30 30-30h100c16.542969 0 30 13.457031 30 30v126c0 5.515625-4.484375 10-10 10h-10v-116c0-5.523438-4.476562-10-10-10s-10 4.476562-10 10v322h-30v-136c0-5.523438-4.476562-10-10-10s-10 4.476562-10 10v136h-30v-322c0-5.523438-4.476562-10-10-10s-10 4.476562-10 10v116h-10c-5.515625 0-10-4.484375-10-10zm0 0"/><path d="m270 326h50v176c0 5.523438 4.476562 10 10 10h80c5.523438 0 10-4.476562 10-10v-176h50c3.144531 0 6.109375-1.480469 7.996094-3.996094 1.890625-2.515625 2.484375-5.773437 1.605468-8.792968l-55.746093-191.835938c-3.835938-12.785156-15.382813-21.375-28.734375-21.375h-50.242188c-13.351562 0-24.898437 8.589844-28.761718 21.460938l-55.71875 191.75c-.878907 3.019531-.285157 6.277343 1.605468 8.792968 1.886719 2.515625 4.851563 3.996094 7.996094 3.996094zm65.296875-198.875c1.28125-4.261719 5.132813-7.125 9.582031-7.125h50.242188c4.449218 0 8.300781 2.863281 9.554687 7.039062l52.003907 178.960938h-46.679688c-5.523438 0-10 4.476562-10 10v176h-20v-136c0-5.523438-4.476562-10-10-10s-10 4.476562-10 10v136h-20v-176c0-5.523438-4.476562-10-10-10h-46.679688zm0 0"/><path d="m420 50c0-27.570312-22.429688-50-50-50s-50 22.429688-50 50 22.429688 50 50 50 50-22.429688 50-50zm-50 30c-16.542969 0-30-13.457031-30-30s13.457031-30 30-30 30 13.457031 30 30-13.457031 30-30 30zm0 0"/><path d="m230 512c5.523438 0 10-4.476562 10-10v-492c0-5.523438-4.476562-10-10-10s-10 4.476562-10 10v492c0 5.523438 4.476562 10 10 10zm0 0"/></svg>