<svg id="icons" enable-background="new 0 0 64 64" height="512" viewBox="0 0 64 64" width="512" xmlns="http://www.w3.org/2000/svg"><path d="m60 11.001c-.55 0-1.45 0-2 0h-56c-.55 0-1 .45-1 1v24.012c0 .549.45 1 1 1h40 2 18c.55 0 1-.451 1-1v-24.012c0-.55-.45-1-1-1z" fill="#844747"/><path d="m60 7c-.55 0-1.45 0-2 0h-56c-.55 0-1 .45-1 1v24.01c0 .55.45 1 1 1h40 2 18c.55 0 1-.451 1-1v-24.01c0-.55-.45-1-1-1z" fill="#965353"/><path d="m48 13.009c1.1 0 2 .89 2 2 0 1.1-.9 2-2 2s-2-.9-2-2c0-1.11.9-2 2-2z" fill="#965353"/><path d="m54 20.009c-1.1 0-2 .89-2 2 0 1.1.9 2 2 2s2-.9 2-2c0-1.11-.9-2-2-2z" fill="#965353"/><path d="m48 20.009c-1.1 0-2 .89-2 2 0 1.1.9 2 2 2s2-.9 2-2c0-1.11-.9-2-2-2z" fill="#844747"/><path d="m52.01 37.01h8.99v19.99h-8.99z" fill="#656d78"/><path d="m54 13.009c1.1 0 2 .89 2 2 0 1.1-.9 2-2 2s-2-.9-2-2c0-1.11.9-2 2-2z" fill="#844747"/><path d="m32 37.01h10.01v19.99h-10.01z" fill="#656d78"/><path d="m50 22.009c0-1.11-.9-2-2-2s-2 .89-2 2c0 1.1.9 2 2 2s2-.9 2-2zm0-7c0-1.11-.9-2-2-2s-2 .89-2 2c0 1.1.9 2 2 2s2-.9 2-2zm6 7c0-1.11-.9-2-2-2s-2 .89-2 2c0 1.1.9 2 2 2s2-.9 2-2zm0-7c0-1.11-.9-2-2-2s-2 .89-2 2c0 1.1.9 2 2 2s2-.9 2-2zm3-5.009v17h-16v-17z" fill="#ccd1d9"/><path d="m3 37.01h8.99v19.99h-8.99z" fill="#656d78"/><path d="m30 17.009h4c1.1 0 2-.9 2-2 0-1.11-.9-2-2-2h-4c-1.1 0-2 .89-2 2 0 1.1.9 2 2 2zm4 3h-4c-1.1 0-2 .89-2 2 0 1.1.9 2 2 2h4c1.1 0 2-.9 2-2 0-1.11-.9-2-2-2zm6 6.991h-16v-17h16z" fill="#ccd1d9"/><path d="m5 27h16.01v3.01h-16.01z" fill="#e6e9ed"/><path d="m34 13.009c1.1 0 2 .89 2 2 0 1.1-.9 2-2 2h-4c-1.1 0-2-.9-2-2 0-1.11.9-2 2-2z" fill="#fc6e51"/><path d="m34 20.009c1.1 0 2 .89 2 2 0 1.1-.9 2-2 2h-4c-1.1 0-2-.9-2-2 0-1.11.9-2 2-2z" fill="#fc6e51"/><path d="m16 20.009c1.1 0 2 .89 2 2 0 1.1-.9 2-2 2s-4-.9-4-2c0-1.11 2.9-2 4-2z" fill="#965353"/><path d="m5 10h16.01v17h-16.01zm9 5c0-1.101-2.9-2-4-2s-2 .899-2 2c0 1.109.9 2 2 2s4-.891 4-2zm2 9.009c1.1 0 2-.9 2-2 0-1.11-.9-2-2-2s-4 .89-4 2c0 1.1 2.9 2 4 2z" fill="#ccd1d9"/><path d="m11.99 37.01h10v19.99h-10z" fill="#656d78"/><path d="m42.01 37.01h10v19.99h-10z" fill="#656d78"/><path d="m43 27h16v3.01h-16z" fill="#e6e9ed"/><path d="m10 13c1.1 0 4 .899 4 2 0 1.109-2.9 2-4 2s-2-.891-2-2c0-1.101.9-2 2-2z" fill="#965353"/><path d="m24 27h16v3.01h-16z" fill="#e6e9ed"/><path d="m21.99 37.01h10.01v19.99h-10.01z" fill="#656d78"/><path d="m18.001 16.001h-3.999c-.553 0-1-.448-1-1s.447-1 1-1h3.999c.553 0 1 .448 1 1s-.447 1-1 1z" fill="#fff"/><path d="m18.001 17c-.553 0-1-.448-1-1v-1.999c0-.552.447-1 1-1s1 .448 1 1v1.999c0 .553-.447 1-1 1z" fill="#fff"/><path d="m11.998 23.002h-3.999c-.553 0-1-.448-1-1s.447-1 1-1h3.999c.553 0 1 .448 1 1s-.447 1-1 1z" fill="#fff"/><path d="m7.999 24.001c-.553 0-1-.448-1-1v-1.999c0-.552.447-1 1-1s1 .448 1 1v1.999c0 .553-.447 1-1 1z" fill="#fff"/><path d="m28.001 16.002h-1c-.553 0-1-.448-1-1s.447-1 1-1h1c.553 0 1 .448 1 1s-.447 1-1 1z" fill="#e9573f"/><path d="m36.999 16.002h-1c-.553 0-1-.448-1-1s.447-1 1-1h1c.553 0 1 .448 1 1s-.447 1-1 1z" fill="#e9573f"/><path d="m28.001 23.002h-1c-.553 0-1-.448-1-1s.447-1 1-1h1c.553 0 1 .448 1 1s-.447 1-1 1z" fill="#e9573f"/><path d="m36.999 23.002h-1c-.553 0-1-.448-1-1s.447-1 1-1h1c.553 0 1 .448 1 1s-.447 1-1 1z" fill="#e9573f"/><path d="m48 18.002c-1.654 0-3-1.346-3-3s1.346-3 3-3 3 1.346 3 3-1.346 3-3 3zm0-4c-.552 0-1 .449-1 1s.448 1 1 1 1-.449 1-1-.448-1-1-1z" fill="#965353"/><path d="m54 18.002c-1.654 0-3-1.346-3-3s1.346-3 3-3 3 1.346 3 3-1.346 3-3 3zm0-4c-.552 0-1 .449-1 1s.448 1 1 1 1-.449 1-1-.448-1-1-1z" fill="#844747"/><path d="m51 22.002c0-1.654 1.346-3 3-3s3 1.346 3 3-1.346 3-3 3-3-1.345-3-3zm2 0c0 .551.448 1 1 1s1-.449 1-1-.448-1-1-1-1 .449-1 1z" fill="#965353"/><path d="m45 22.002c0-1.654 1.346-3 3-3s3 1.346 3 3-1.346 3-3 3-3-1.345-3-3zm2 0c0 .551.448 1 1 1s1-.449 1-1-.448-1-1-1-1 .449-1 1z" fill="#844747"/><path d="m10.988 37.008h2v19.992h-2z" fill="#545c66"/><path d="m20.99 37.008h2v19.992h-2z" fill="#545c66"/><path d="m30.992 37.008h2v19.992h-2z" fill="#545c66"/><path d="m40.994 37.008h2v19.992h-2z" fill="#545c66"/><path d="m50.996 37.008h2v19.992h-2z" fill="#545c66"/><g fill="#fc6e51"><path d="m33.999 19.002h-3.998c-1.654 0-3 1.346-3 3s1.346 3 3 3h3.998c1.654 0 3-1.346 3-3s-1.346-3-3-3zm0 4h-3.998c-.552 0-1-.449-1-1s.448-1 1-1h3.998c.552 0 1 .449 1 1s-.448 1-1 1z"/><path d="m30.001 18.002c-1.654 0-3-1.346-3-3s1.346-3 3-3c.553 0 1 .448 1 1s-.447 1-1 1c-.552 0-1 .449-1 1s.448 1 1 1c.553 0 1 .448 1 1s-.447 1-1 1z"/><path d="m33.999 18.002c-.553 0-1-.448-1-1s.447-1 1-1c.552 0 1-.449 1-1s-.448-1-1-1c-.553 0-1-.448-1-1s.447-1 1-1c1.654 0 3 1.346 3 3s-1.346 3-3 3z"/><path d="m33.999 18.002h-3.998c-.553 0-1-.448-1-1s.447-1 1-1h3.998c.553 0 1 .448 1 1s-.447 1-1 1z"/><path d="m33.999 14.002h-3.998c-.553 0-1-.448-1-1s.447-1 1-1h3.998c.553 0 1 .448 1 1s-.447 1-1 1z"/></g><path d="m10 18.001c-1.654 0-3-1.346-3-3s1.346-3 3-3c1.165 0 5.002.935 5.002 3s-3.837 3-5.002 3zm0-4c-.552 0-1 .449-1 1s.448 1 1 1c.826 0 2.437-.571 2.917-1-.48-.428-2.091-1-2.917-1z" fill="#965353"/><path d="m16 25.002c-1.165 0-5.002-.935-5.002-3s3.837-3 5.002-3c1.654 0 3 1.346 3 3s-1.346 3-3 3zm-2.917-3c.48.429 2.091 1 2.917 1 .552 0 1-.449 1-1s-.448-1-1-1c-.826 0-2.437.571-2.917 1z" fill="#965353"/></svg>