<svg height="480pt" viewBox="0 -64 480 480" width="480pt" xmlns="http://www.w3.org/2000/svg" xmlns:xlink="http://www.w3.org/1999/xlink"><linearGradient id="a"><stop offset="0" stop-color="#fff200"/><stop offset="1" stop-color="#cd118c"/></linearGradient><linearGradient id="b" gradientUnits="userSpaceOnUse" x1="-133.536" x2="370.464" xlink:href="#a" y1="125.28" y2="581.28"/><linearGradient id="c" gradientUnits="userSpaceOnUse" x1="-25.504" x2="478.496" xlink:href="#a" y1="5.872" y2="461.872"/><linearGradient id="d" gradientUnits="userSpaceOnUse" x1="24.904" x2="528.904" xlink:href="#a" y1="-49.848" y2="406.152"/><linearGradient id="e" gradientUnits="userSpaceOnUse" x1="14.912" x2="518.912" xlink:href="#a" y1="-38.792" y2="417.208"/><linearGradient id="f" gradientUnits="userSpaceOnUse" x1="-15.648" x2="488.352" xlink:href="#a" y1="-5.016" y2="450.984"/><path d="m80 304c0 8.835938-7.164062 16-16 16s-16-7.164062-16-16 7.164062-16 16-16 16 7.164062 16 16zm0 0" fill="url(#b)"/><path d="m320 304c0 8.835938-7.164062 16-16 16s-16-7.164062-16-16 7.164062-16 16-16 16 7.164062 16 16zm0 0" fill="url(#c)"/><path d="m432 304c0 8.835938-7.164062 16-16 16s-16-7.164062-16-16 7.164062-16 16-16 16 7.164062 16 16zm0 0" fill="url(#d)"/><path d="m472 224h-8v-216c0-4.417969-3.582031-8-8-8h-288c-4.417969 0-8 3.582031-8 8v24h-88c-.300781.042969-.601562.101562-.894531.183594-.546875.050781-1.082031.160156-1.601563.328125-.941406.351562-1.820312.847656-2.609375 1.472656-.410156.367187-.78125.773437-1.109375 1.214844-.222656.214843-.425781.441406-.617187.679687l-48 80c-.070313.167969-.132813.339844-.183594.511719-.230469.484375-.410156.992187-.535156 1.511719-.160157.523437-.269531 1.058594-.320313 1.601562 0 .183594-.105468.34375-.105468.535156v103.960938h-8.023438c-4.417969 0-8 3.582031-8 8v32c0 4.417969 3.582031 8 8 8h20.320312c-17.292968 19.21875-16.261718 48.679688 2.339844 66.640625 18.597656 17.957031 48.082032 17.957031 66.679688 0 18.601562-17.960937 19.632812-47.421875 2.339844-66.640625h28.320312v56c0 4.417969 3.582031 8 8 8h96c4.417969 0 8-3.582031 8-8v-56h28.320312c-17.292968 19.21875-16.261718 48.679688 2.339844 66.640625 18.597656 17.957031 48.082032 17.957031 66.679688 0 18.601562-17.960937 19.632812-47.421875 2.339844-66.640625h40.640624c-17.292968 19.21875-16.261718 48.679688 2.339844 66.640625 18.597656 17.957031 48.082032 17.957031 66.679688 0 18.601562-17.960937 19.632812-47.421875 2.339844-66.640625h20.320312c4.417969 0 8-3.582031 8-8v-32c0-4.417969-3.582031-8-8-8zm-296-208h272v208h-272zm-80 288c0 17.671875-14.328125 32-32 32s-32-14.328125-32-32 14.328125-32 32-32 32 14.328125 32 32zm128 16h-80v-48h80zm112-16c0 17.671875-14.328125 32-32 32s-32-14.328125-32-32 14.328125-32 32-32 32 14.328125 32 32zm112 0c0 17.671875-14.328125 32-32 32s-32-14.328125-32-32 14.328125-32 32-32 32 14.328125 32 32zm16-48h-448v-16h8c4.417969 0 8-3.582031 8-8v-109.785156l44.527344-74.214844h83.472656v184c0 4.417969 3.582031 8 8 8h296zm0 0" fill="url(#e)"/><path d="m136 64h-48c-.953125.019531-1.890625.210938-2.777344.558594-.191406.074218-.375.128906-.558594.21875-.808593.367187-1.546874.867187-2.191406 1.480468-.121094.109376-.207031.246094-.328125.375-.289062.289063-.554687.601563-.800781.925782l-32 48c-1.636719 2.457031-1.789062 5.613281-.398438 8.214844 1.390626 2.601562 4.105469 4.226562 7.054688 4.226562h80c4.417969 0 8-3.582031 8-8v-48c0-4.417969-3.582031-8-8-8zm-8 48h-57.054688l21.335938-32h35.71875zm0 0" fill="url(#f)"/></svg>