<?xml version="1.0" encoding="iso-8859-1"?>
<!-- Generator: Adobe Illustrator 19.0.0, SVG Export Plug-In . SVG Version: 6.00 Build 0)  -->
<svg version="1.1" id="Capa_1" xmlns="http://www.w3.org/2000/svg" xmlns:xlink="http://www.w3.org/1999/xlink" x="0px" y="0px"
	 viewBox="0 0 512 512" style="enable-background:new 0 0 512 512;" xml:space="preserve">
<g>
	<path style="fill:#E9E3D5;" d="M448.37,211.621c-13.024,0-26.049-4.857-35.965-14.57c-3.003-2.941-3.053-7.761-0.111-10.764
		c2.941-3.003,7.761-3.053,10.764-0.111c13.957,13.673,36.667,13.672,50.624,0c8.756-8.579,13.579-19.973,13.579-32.082
		s-4.823-23.503-13.579-32.082c-23.466-22.988-61.625-23.009-85.064-0.048c-3.003,2.941-7.823,2.892-10.764-0.111
		c-2.942-3.003-2.892-7.823,0.111-10.764c29.313-28.717,77.031-28.696,106.37,0.048c11.703,11.465,18.149,26.72,18.149,42.955
		c0,16.236-6.445,31.491-18.149,42.957C474.419,206.765,461.394,211.621,448.37,211.621z"/>
	<path style="fill:#E9E3D5;" d="M383.287,123.982c-1.711,0-3.431-0.573-4.852-1.751c-3.237-2.682-3.687-7.481-1.006-10.717
		c0.602-0.727,14.81-17.872,19.949-23.604c7.064-7.879,7.124-17.712,0.15-25.049c-2.347-2.47-5.439-3.829-8.703-3.829
		s-6.356,1.36-8.702,3.829c-3.5,3.682-3.5,7.738,0,11.42c2.896,3.047,2.774,7.865-0.273,10.761
		c-3.047,2.895-7.865,2.774-10.762-0.273c-9.065-9.538-9.065-22.859,0-32.396c5.249-5.523,12.259-8.564,19.736-8.564
		c7.479,0,14.488,3.042,19.738,8.564c12.46,13.108,12.521,31.9,0.15,45.698c-4.941,5.512-19.415,22.978-19.562,23.153
		C387.647,123.042,385.474,123.982,383.287,123.982z"/>
	<path style="fill:#E9E3D5;" d="M412.924,31.571c-4.204,0-7.611-3.408-7.611-7.611c0-6.27-5.236-9.902-5.287-9.937
		c-3.541-2.266-4.573-6.974-2.307-10.514c2.266-3.54,6.973-4.574,10.514-2.307c4.57,2.925,12.304,11.01,12.304,22.757
		C420.536,28.163,417.128,31.571,412.924,31.571z"/>
	<path style="fill:#E9E3D5;" d="M383.152,33.153c-1.815,0-3.634-0.644-5.09-1.954c-0.672-0.604-3.227-1.318-5.16-1.442
		c-4.178-0.267-7.379-3.861-7.136-8.04c0.244-4.18,3.813-7.366,7.977-7.16c1.522,0.08,9.376,0.714,14.501,5.327
		c3.125,2.812,3.378,7.625,0.566,10.749C387.309,32.304,385.235,33.153,383.152,33.153z"/>
	<path style="fill:#E9E3D5;" d="M504.395,119.531c-2.44,0-4.837-1.171-6.308-3.343c-0.537-0.793-3.06-2.153-4.624-2.627
		c-4.022-1.224-6.291-5.475-5.068-9.497c1.223-4.021,5.473-6.291,9.497-5.068c1.458,0.445,8.931,2.945,12.797,8.654
		c2.358,3.481,1.447,8.213-2.033,10.571C507.35,119.107,505.865,119.531,504.395,119.531z"/>
</g>
<path style="fill:#00BD4F;" d="M203.983,221.575c-37.867,14.617-72.323,36.981-101.096,65.752L10.81,379.404
	c-14.413,14.413-14.413,37.78,0,52.194l69.591,69.591c14.413,14.413,37.78,14.413,52.194,0l92.077-92.077
	c28.771-28.771,51.135-63.228,65.752-101.096L273.3,238.698L203.983,221.575z"/>
<path style="fill:#00973C;" d="M273.385,288.021c-12.787,38.363-34.372,74.456-64.855,104.943c-0.001,0.001-0.003,0.002-0.004,0.003
	l-92.078,92.078c-5.5,5.499-14.4,5.5-19.901-0.001l-69.591-69.591c-7.172-7.172-17.925-8.564-26.5-4.2
	c1.169,7.448,4.615,14.608,10.353,20.346L80.4,501.19c14.413,14.413,37.78,14.413,52.194,0l92.077-92.077
	c28.771-28.772,51.135-63.228,65.752-101.096l-9.783-39.6c-2.596,6.368-5.018,12.889-7.25,19.586
	C273.389,288.009,273.387,288.014,273.385,288.021z"/>
<path style="fill:#FFCF5D;" d="M295.049,295.242c14.302-42.906,38.396-81.891,70.376-113.87l12.265-12.265
	c-5.044-5.044-29.75-29.75-34.796-34.796l-12.265,12.265c-31.979,31.979-70.965,56.073-113.87,70.376
	c-4.303,1.435-8.554,2.994-12.775,4.623c3.804,3.804,82.658,82.658,86.442,86.442C292.054,303.797,293.614,299.545,295.049,295.242z
	"/>
<g>
	<path style="fill:#FFB545;" d="M412.484,134.312c-5.044-5.044-29.75-29.75-34.796-34.796c-2.402-2.402-6.297-2.402-8.699,0
		l-34.796,34.796c-2.402,2.402-2.402,6.297,0,8.699c5.044,5.044,29.75,29.75,34.796,34.796c2.402,2.402,6.296,2.402,8.699,0
		l34.796-34.796C414.886,140.609,414.886,136.714,412.484,134.312z"/>
	<path style="fill:#FFB545;" d="M412.484,134.312c-1.807-1.807-6.141-6.142-11.187-11.187c-3.742,2.107-2.385,1.166-33.081,31.861
		c-5.559,0.187-10.994,2.384-15.374,6.675l0,0l0,0c-41.656,41.662-64.143,81.663-80.221,128.552
		c9.671,9.67,16.735,16.735,17.805,17.804c9.291-24.074,20.921-72.568,78.564-130.21c2.402,2.402,6.296,2.402,8.698,0l34.796-34.796
		C414.886,140.609,414.886,136.714,412.484,134.312z"/>
</g>
<path style="fill:#FFF9EB;" d="M195.861,363.376l-31.491-31.491l-15.746-15.746c-8.696-8.696-22.795-8.696-31.491,0l-63.679,63.679
	c-8.696,8.696-8.696,22.795,0,31.491l15.746,15.746l31.491,31.491c8.696,8.696,22.795,8.696,31.491,0l63.679-63.679
	C204.557,386.171,204.557,372.072,195.861,363.376z"/>
<circle style="fill:#FF983B;" cx="247.202" cy="264.798" r="25.372"/>
<path style="fill:#CE795F;" d="M472.285,16.842l-24.507,27.188c-2.935,3.483-2.479,8.687,1.016,11.607l10.833,9.052
	c3.474,2.903,8.642,2.451,11.559-1.011l24.552-27.24L472.285,16.842z"/>
<path style="fill:#A05A4B;" d="M474.172,38.317c-10.192-8.516-13.451-19.607-7.75-26.372c5.702-6.765,17.237-5.496,27.428,3.02
	c10.191,8.516,13.451,19.607,7.749,26.372C495.898,48.102,484.363,46.832,474.172,38.317z"/>
<g>
</g>
<g>
</g>
<g>
</g>
<g>
</g>
<g>
</g>
<g>
</g>
<g>
</g>
<g>
</g>
<g>
</g>
<g>
</g>
<g>
</g>
<g>
</g>
<g>
</g>
<g>
</g>
<g>
</g>
</svg>
