<svg height="512" viewBox="0 0 512 512" width="512" xmlns="http://www.w3.org/2000/svg"><g><path d="m496 288h-480a8 8 0 0 0 -8 8v192a8 8 0 0 0 8 8h480a8 8 0 0 0 8-8v-192a8 8 0 0 0 -8-8zm-344 192h-128v-176h128zm192 0h-176v-176h176zm144 0h-128v-88h128zm0-104h-128v-72h128z"/><path d="m328 376h-144a8 8 0 0 0 -8 8v64a8 8 0 0 0 8 8h144a8 8 0 0 0 8-8v-64a8 8 0 0 0 -8-8zm-136 16h128v8h-128zm128 48h-128v-24h128z"/><path d="m256 368a24 24 0 1 0 -24-24 24.027 24.027 0 0 0 24 24zm0-32a8 8 0 1 1 -8 8 8.009 8.009 0 0 1 8-8z"/><path d="m200 368a24 24 0 1 0 -24-24 24.027 24.027 0 0 0 24 24zm0-32a8 8 0 1 1 -8 8 8.009 8.009 0 0 1 8-8z"/><path d="m312 320a24 24 0 1 0 24 24 24.027 24.027 0 0 0 -24-24zm0 32a8 8 0 1 1 8-8 8.009 8.009 0 0 1 -8 8z"/><path d="m408 328h32a8 8 0 0 0 0-16h-32a8 8 0 0 0 0 16z"/><path d="m408 416h32a8 8 0 0 0 0-16h-32a8 8 0 0 0 0 16z"/><path d="m464 8h-448a8 8 0 0 0 0 16h192v38.46l-29.42 73.54h-18.58a8 8 0 0 0 -8 8v32a8 8 0 0 0 8 8h192a8 8 0 0 0 8-8v-32a8 8 0 0 0 -8-8h-18.58l-29.42-73.54v-38.46h160a8 8 0 0 0 0-16zm-240 16h64v32h-64zm120 128v16h-176v-16zm-27.82-16h-120.36l25.6-64h69.16z"/><path d="m488 24h8a8 8 0 0 0 0-16h-8a8 8 0 0 0 0 16z"/><path d="m128 360a8 8 0 0 0 -8 8v48a8 8 0 0 0 16 0v-48a8 8 0 0 0 -8-8z"/></g></svg>