<?xml version="1.0" encoding="iso-8859-1"?>
<!-- Generator: Adobe Illustrator 19.0.0, SVG Export Plug-In . SVG Version: 6.00 Build 0)  -->
<svg version="1.1" id="Layer_1" xmlns="http://www.w3.org/2000/svg" xmlns:xlink="http://www.w3.org/1999/xlink" x="0px" y="0px"
	 viewBox="0 0 496 496" style="enable-background:new 0 0 496 496;" xml:space="preserve">
<g>
	<g>
		<g>
			<path d="M440,80h-24V64h16V24c0-13.232-10.768-24-24-24h-64c-13.232,0-24,10.768-24,24v40h16v16h-24c-30.872,0-56,25.12-56,56
				v144v27.032c-5.192-1.328-10.536-2.248-16-2.696V296V111.064l-24-48.92V0H24v62.144l-24,48.92V496h232
				c11.136,0,21.912-1.976,32-5.536V496h232V136C496,105.12,470.872,80,440,80z M336,24c0-4.408,3.584-8,8-8h64c4.416,0,8,3.592,8,8
				v24h-16V32h-16v16h-16V32h-16v16h-16V24z M400,64v16h-48V64H400z M272,136c0-22.056,17.944-40,40-40h128
				c22.056,0,40,17.944,40,40v16H272V136z M272,168h208v104h-63.792c7.312-9.656,18.784-16,31.792-16h8v-16h-8
				c-22.28,0-41.504,13.112-50.52,32H272V168z M480,288v59.048c-15.816-23.816-41.96-40.144-72-42.64V296
				c0-2.736,0.28-5.416,0.808-8H480z M272,288h120.64c-0.376,2.624-0.64,5.28-0.64,8v8.408c-32.72,2.72-60.816,21.856-75.976,49.184
				c-10-18.216-25.48-32.44-44.024-40.888V288z M40,16h160v40h-40.808c-3.72-18.232-19.88-32-39.192-32S84.528,37.768,80.808,56H40
				V16z M144,64c0,13.232-10.768,24-24,24S96,77.232,96,64s10.768-24,24-24S144,50.768,144,64z M36.984,72h43.824
				c3.72,18.232,19.872,32,39.192,32s35.472-13.768,39.192-32h43.824l19.624,40H17.36L36.984,72z M16,128h208v64H16V128z M16,208
				h208v48.888C213.824,246.48,199.664,240,184,240h-8v16h8c22.056,0,40,17.944,40,40v8.408
				c-25.104,2.088-47.44,13.872-63.352,31.592H16V208z M16,480V352h132.984C140.776,366.136,136,382.504,136,400
				c0,33.376,17.136,62.792,43.048,80H16z M232,480c-44.112,0-80-35.888-80-80c0-41.408,31.632-75.568,72-79.592v30.712
				c-12.168-2.584-16.68-10.4-16.896-10.792l-14.256,7.256C193.256,348.416,203.384,368,232,368
				c28.616,0,38.744-19.584,39.16-20.424l-14.256-7.256c-0.216,0.4-4.728,8.216-16.896,10.792v-30.68
				c31.072,3.064,57.44,23.76,67.656,53.648C305.328,382.344,304,391.008,304,400c0,9.016,1.336,17.704,3.672,25.984
				C296.576,458.304,266.224,480,232,480z M284.976,480c12.76-8.448,23.464-19.896,31.032-33.608
				c7.512,13.536,18.184,25.072,31.04,33.608H284.976z M480,480h-27.048c10.72-7.12,19.928-16.328,27.048-27.048V480z
				 M400.008,479.992C355.896,479.992,320,444.112,320,400c0-41.408,31.632-75.568,72-79.592v30.712
				c-12.168-2.584-16.672-10.384-16.84-10.696l-14.312,7.16C361.256,348.416,371.384,368,400,368
				c28.616,0,38.744-19.584,39.16-20.424l-14.256-7.256c-0.216,0.4-4.728,8.216-16.896,10.792V320.4
				c40.368,4.032,72,38.184,72,79.592C480.008,444.104,444.12,479.992,400.008,479.992z"/>
			<rect x="32" y="304" width="16" height="16"/>
			<rect x="64" y="304" width="96" height="16"/>
			<rect x="288" y="184" width="16" height="16"/>
			<rect x="320" y="184" width="144" height="16"/>
		</g>
	</g>
</g>
<g>
</g>
<g>
</g>
<g>
</g>
<g>
</g>
<g>
</g>
<g>
</g>
<g>
</g>
<g>
</g>
<g>
</g>
<g>
</g>
<g>
</g>
<g>
</g>
<g>
</g>
<g>
</g>
<g>
</g>
</svg>
