<svg height="472pt" viewBox="-3 0 471 472" width="472pt" xmlns="http://www.w3.org/2000/svg"><path d="m464.5 240c0 128.128906-103.871094 232-232 232s-232-103.871094-232-232 103.871094-232 232-232 232 103.871094 232 232zm0 0" fill="#32b1cc"/><path d="m384.5 240c0 83.949219-68.050781 152-152 152s-152-68.050781-152-152 68.050781-152 152-152 152 68.050781 152 152zm0 0" fill="#87cee9"/><path d="m144.5 168h48v304h-48zm0 0" fill="#dd3e46"/><path d="m160.5 120h16v48h-16zm0 0" fill="#a3bdc9"/><path d="m176.5 96h-16c-8.835938 0-16-7.164062-16-16v-80h16v80h16v-80h16v80c0 8.835938-7.164062 16-16 16zm0 0" fill="#cfdfe8"/><path d="m184.5 128h-32c-22.082031-.027344-39.972656-17.917969-40-40v-88h16v88c0 13.253906 10.746094 24 24 24h32c13.253906 0 24-10.746094 24-24v-88h16v88c-.027344 22.082031-17.917969 39.972656-40 40zm0 0" fill="#cfdfe8"/><path d="m192.5 376-48 16v-96l48-16zm0 0" fill="#b11e48"/><path d="m296.5 160h16v49.457031h-16zm0 0" fill="#a3bdc9"/><path d="m360.5 88c0-44.183594-25.070312-80-56-80s-56 35.816406-56 80 25.070312 80 56 80 56-35.816406 56-80zm0 0" fill="#cfdfe8"/><path d="m307.027344 143.59375-5.054688-15.203125 2.527344 7.609375-2.65625-7.542969c.769531-.289062 18.65625-7.3125 18.65625-40.457031h16c0 45.246094-28.265625 55.199219-29.472656 55.59375zm0 0" fill="#f2f9fc"/><path d="m320.5 56h16v16h-16zm0 0" fill="#f2f9fc"/><path d="m280.5 208h48v264h-48zm0 0" fill="#dd3e46"/><path d="m328.5 376-48 16v-96l48-16zm0 0" fill="#b11e48"/></svg>