<?xml version="1.0" encoding="iso-8859-1"?>
<!-- Generator: Adobe Illustrator 19.0.0, SVG Export Plug-In . SVG Version: 6.00 Build 0)  -->
<svg version="1.1" id="Capa_1" xmlns="http://www.w3.org/2000/svg" xmlns:xlink="http://www.w3.org/1999/xlink" x="0px" y="0px"
	 viewBox="0 0 512.001 512.001" style="enable-background:new 0 0 512.001 512.001;" xml:space="preserve">
<path style="fill:#B7E0F6;" d="M481.001,467c0,24.901-20.099,45-45,45h-360c-24.901,0-45-20.099-45-45
	c0-72.599,34.799-137.1,88.2-178.2l136.8,49.501L397.9,292.7C448.6,334.1,481.001,396.799,481.001,467z"/>
<path style="fill:#A4D9F5;" d="M481.001,467c0,24.901-20.099,45-45,45h-180V338.301L397.9,292.7
	C448.6,334.1,481.001,396.799,481.001,467z"/>
<path style="fill:#1689FC;" d="M314.802,250.101l-58.801,77.398l-60.601-76.8c19.201-5.7,39.601-8.699,60.601-8.699
	C276.401,242,295.902,244.999,314.802,250.101z"/>
<path style="fill:#0A4EAF;" d="M309.402,363.8l-6.601-50.1h-93.6l-6.601,50.099l22.8,45.601l-14.099,85.199
	c-0.901,4.2,0.3,8.701,3.3,12.001c2.701,3.6,6.899,5.4,11.4,5.4h60c4.501,0,8.699-1.8,11.4-5.4c2.999-3.3,4.2-7.8,3.3-12.001
	L286.602,409.4L309.402,363.8z"/>
<path style="fill:#136EF1;" d="M314.802,250.101l-58.801,77.398V242C276.401,242,295.902,244.999,314.802,250.101z"/>
<path style="fill:#063E8B;" d="M309.402,363.8l-22.8,45.601l14.099,85.199c0.901,4.2-0.3,8.701-3.3,12.001
	c-2.701,3.6-6.899,5.4-11.4,5.4h-30V313.7h46.8L309.402,363.8z"/>
<path style="fill:#CAE8F9;" d="M397.9,292.7L328.002,386c-2.701,3.6-6.601,5.7-10.801,6h-1.2c-3.9,0-7.8-1.5-10.499-4.501
	l-49.501-49.198L206.5,387.5c-2.999,3.301-7.2,4.801-11.999,4.501c-4.501-0.601-8.401-2.999-11.1-6.599l-64.2-96.602
	c22.5-17.401,47.999-30.3,76.199-38.101l60.601,46.8l58.801-47.399C345.701,258.5,373.901,272.901,397.9,292.7z"/>
<path style="fill:#B7E0F6;" d="M397.9,292.7L328.002,386c-2.701,3.6-6.601,5.7-10.801,6h-1.2c-3.9,0-7.8-1.5-10.499-4.501
	l-49.501-49.198V297.5l58.801-47.399C345.701,258.5,373.901,272.901,397.9,292.7z"/>
<path style="fill:#18A7FC;" d="M256.001,0c-74.399,0-135,62.601-135,137s60.601,135,135,135s135-60.601,135-135S330.4,0,256.001,0z"
	/>
<path style="fill:#1689FC;" d="M391.001,137c0,74.399-60.601,135-135,135V0C330.4,0,391.001,62.601,391.001,137z"/>
<g>
</g>
<g>
</g>
<g>
</g>
<g>
</g>
<g>
</g>
<g>
</g>
<g>
</g>
<g>
</g>
<g>
</g>
<g>
</g>
<g>
</g>
<g>
</g>
<g>
</g>
<g>
</g>
<g>
</g>
</svg>
