<svg height="512pt" viewBox="0 -1 512 512" width="512pt" xmlns="http://www.w3.org/2000/svg"><path d="m186.800781 75c-3.601562-33.800781-28.601562-61.601562-62-68.398438-55.199219-11.203124-105.199219 38.796876-91.601562 95 10.199219 42 52.402343 67.597657 94.402343 57.597657 38-9.398438 63.398438-45.199219 59.199219-84.199219zm0 0" fill="#f75c64"/><path d="m167.800781 83.199219c0 32.363281-26.238281 58.601562-58.601562 58.601562s-58.597657-26.238281-58.597657-58.601562 26.234376-58.597657 58.597657-58.597657 58.601562 26.234376 58.601562 58.597657zm0 0" fill="#e9e9ea"/><path d="m385 191.398438h-192.800781c-10 0-18.199219 8.203124-18.199219 18.203124v141c0 10 8.199219 18.199219 18.199219 18.199219h83.199219v-77.402343c0-7.398438 6-13.199219 13.203124-13.199219 7.398438 0 13.199219 6 13.199219 13.199219v77.402343h83.199219c10 0 18.199219-8.199219 18.199219-18.199219v-141c0-10-8.199219-18.203124-18.199219-18.203124zm0 0" fill="#d3d3dd"/><path d="m288.601562 278.199219c-7.402343 0-13.203124 6-13.203124 13.199219v136h26.601562v-136c-.199219-7.398438-6-13.199219-13.398438-13.199219zm0 0" fill="#e9e9ea"/><path d="m253 407.398438c-5.601562 0-10 4.601562-9.800781 10.203124 0 5.398438 4.402343 9.796876 9.800781 9.796876h22.398438v-20zm0 0" fill="#d3d3dd"/><path d="m326.601562 407.398438h-24.800781v20h24.800781c5.597657 0 10-4.398438 10.199219-9.796876 0-5.601562-4.402343-10-9.800781-10.203124-.199219 0-.398438 0-.398438 0zm0 0" fill="#d3d3dd"/><path d="m385 191.398438h-192.800781c-10 0-18.199219 8.203124-18.199219 18.203124v5.398438h229.199219v-5.398438c0-10-8.199219-18.203124-18.199219-18.203124zm0 0" fill="#e9e9ea"/><path d="m169 427.398438h41.398438c-.398438-11.199219-9.597657-19.796876-20.796876-20-11 .203124-20.203124 8.800781-20.601562 20zm0 0" fill="#60bae2"/><path d="m107.398438 407.398438h-24.398438c-11 0-20 9-20 20h64.199219c.199219-11-8.800781-20-19.800781-20zm0 0" fill="#6d6c6b"/><path d="m125.398438 244-9-18.398438c-3.199219-6.601562-11.199219-9.402343-17.796876-6.203124l-3 1.402343c-6.601562 3.199219-9.402343 11.199219-6.203124 17.800781l9 18.398438zm0 0" fill="#6d6c6b"/><path d="m125.398438 244-27 13 3.203124 40 53-25.601562zm0 0" fill="#6d6c6b"/><path d="m493.800781 427.398438h-449.601562c-7.398438 0-13.199219 6-13.199219 13.203124 0 7.398438 6 13.199219 13.199219 13.199219h449.601562c7.398438 0 13.199219-6 13.199219-13.199219 0-7.203124-6-13.203124-13.199219-13.203124zm0 0" fill="#c1814c"/><path d="m51.601562 454h434.597657v51.398438h-434.597657zm0 0" fill="#b26e3b"/><path d="m451 367.800781h23.398438l11.601562-48.199219-22-5.402343zm0 0" fill="#60bae2"/><path d="m451 367.800781v-35.199219c0-5.601562-4.601562-10-10.199219-9.800781-5.402343 0-9.800781 4.398438-9.800781 9.800781v35.199219zm0 0" fill="#e9e9ea"/><path d="m441.199219 322.601562c-5.597657 0-10 4.398438-10 10v6.796876h20v-6.796876c-.199219-5.402343-4.597657-10-10-10zm0 0" fill="#e9e9ea"/><path d="m418.601562 367.800781h22.597657v59.597657h-22.597657zm0 0" fill="#ffae2c"/><path d="m441.199219 367.800781h22.601562v59.597657h-22.601562zm0 0" fill="#fcd770"/><path d="m463.601562 367.800781h22.597657v59.597657h-22.597657zm0 0" fill="#ffae2c"/><path d="m271.199219 42.601562h16.402343c2.796876 0 5 2.199219 5 5v98c0 2.796876-2.203124 5-5 5h-16.402343c-2.800781 0-5-2.203124-5-5v-98c0-2.800781 2.199219-5 5-5zm0 0" fill="#60bae2"/><path d="m297.601562 42.601562h16.398438c2.800781 0 5 2.199219 5 5v98c0 2.796876-2.199219 5-5 5h-16.398438c-2.800781 0-5-2.203124-5-5v-98c0-2.800781 2.398438-5 5-5zm0 0" fill="#60bae2"/><path d="m324.199219 42.601562h16.402343c2.796876 0 5 2.199219 5 5v98c0 2.796876-2.203124 5-5 5h-16.402343c-2.800781 0-5-2.203124-5-5v-98c0-2.800781 2.199219-5 5-5zm0 0" fill="#60bae2"/><path d="m350.601562 42.601562h16.398438c2.800781 0 5 2.199219 5 5v98c0 2.796876-2.199219 5-5 5h-16.398438c-2.800781 0-5-2.203124-5-5v-98c0-2.800781 2.398438-5 5-5zm0 0" fill="#60bae2"/><path d="m374.601562 56.398438 14.199219-8.199219c2.398438-1.398438 5.398438-.597657 6.800781 1.800781l49 84.800781c1.398438 2.398438.597657 5.398438-1.800781 6.800781l-14.199219 8.199219c-2.402343 1.398438-5.402343.597657-6.800781-1.800781l-49-84.800781c-1.402343-2.398438-.402343-5.398438 1.800781-6.800781zm0 0" fill="#6dcc6d"/><path d="m405.199219 56.398438 14.199219-8.199219c2.402343-1.398438 5.402343-.597657 6.800781 1.800781l49 84.800781c1.402343 2.398438.601562 5.398438-1.800781 6.800781l-14.199219 8.199219c-2.398438 1.398438-5.398438.597657-6.800781-1.800781l-49.199219-84.800781c-1.398438-2.398438-.398438-5.398438 2-6.800781zm0 0" fill="#6dcc6d"/><path d="m485 170.398438h-235.199219c-12.199219 0-22-9.796876-22-22v-121.398438c0-12.199219 9.800781-22 22-22h235.199219c12.199219 0 22 9.800781 22 22v121.601562c0 12-9.800781 21.796876-22 21.796876zm-235.199219-145.398438c-1.199219 0-2 .800781-2 2v121.601562c0 1.199219.800781 2 2 2h235.199219c1.199219 0 2-.800781 2-2v-121.601562c0-1.199219-.800781-2-2-2zm0 0" fill="#c1814c"/><path d="m470.398438 228.398438c-8.796876-1.796876-15.796876-8.597657-17.597657-17.597657 0-.199219-.199219-.402343-.402343-.199219-.199219 0-.199219.199219-.199219.199219-1.800781 8.800781-8.597657 15.800781-17.597657 17.597657-.203124 0-.402343.203124-.203124.402343 0 .199219.203124.199219.203124.199219 8.796876 1.800781 15.796876 8.601562 17.597657 17.601562 0 .199219.199219.398438.402343.199219.199219 0 .199219-.199219.199219-.199219 1.800781-8.800781 8.597657-15.800781 17.597657-17.601562.203124 0 .402343-.199219.203124-.398438 0-.203124-.203124-.203124-.203124-.203124zm0 0" fill="#6dcc6d"/><path d="m56.800781 200.199219h-17.402343c-2.796876 0-5-2.199219-5-5s2.203124-5 5-5h17.402343c2.800781 0 5 2.199219 5 5s-2.199219 5-5 5zm0 0" fill="#60bae2"/><path d="m48.199219 208.800781c-2.800781 0-5-2.199219-5-5v-17.402343c0-2.796876 2.199219-5 5-5s5 2.203124 5 5v17.402343c0 2.800781-2.398438 5-5 5zm0 0" fill="#60bae2"/><path d="m5 223c-1.398438 0-2.601562-.601562-3.601562-1.398438-.199219-.203124-.398438-.402343-.597657-.800781-.199219-.199219-.402343-.601562-.402343-.800781-.199219-.199219-.199219-.601562-.199219-1s-.199219-.601562-.199219-1 0-.601562.199219-1c0-.398438.199219-.601562.199219-1 .203124-.398438.203124-.601562.402343-.800781s.398438-.597657.597657-.800781c1.402343-1.398438 3.601562-1.796876 5.402343-1 .199219.203124.597657.203124.800781.402343.199219.199219.597657.398438.796876.597657.203124.203124.402343.402343.601562.800781.199219.199219.398438.601562.398438.800781.203124.199219.203124.601562.203124 1s0 .601562.199219 1c0 .398438 0 .601562-.199219 1 0 .398438-.203124.601562-.203124 1-.199219.398438-.199219.601562-.398438.800781s-.398438.597657-.601562.800781c-.199219.199219-.398438.398438-.796876.597657-.203124.199219-.601562.402343-.800781.402343-.402343.199219-.601562.199219-1 .199219-.199219.199219-.402343.199219-.800781.199219zm0 0" fill="#fcd770"/><path d="m486.199219 283.199219c-1.398438 0-2.597657-.597657-3.597657-1.398438-.203124-.199219-.402343-.402343-.601562-.800781-.199219-.199219-.398438-.601562-.398438-.800781-.203124-.199219-.203124-.597657-.203124-1 0-.398438-.199219-.597657-.199219-1 0-.398438 0-.597657.199219-1 0-.398438.203124-.597657.203124-1 .199219-.398438.199219-.597657.398438-.800781.199219-.199219.398438-.597657.601562-.796876 1.398438-1.402343 3.597657-1.800781 5.398438-1 .199219.199219.601562.199219.800781.398438s.597657.398438.800781.601562c.199219.199219.398438.398438.597657.796876.199219.203124.402343.601562.402343.800781.199219.199219.199219.601562.199219 1 0 .402343 0 .601562.199219 1 0 .402343 0 .601562-.199219 1 0 .402343-.199219.601562-.199219 1-.203124.402343-.203124.601562-.402343.800781s-.398438.601562-.597657.800781c-.203124.199219-.402343.398438-.800781.597657-.199219.203124-.601562.402343-.800781.402343-.398438.199219-.601562.199219-1 .199219 0 0-.398438.199219-.800781.199219zm0 0" fill="#f75c64"/><g fill="#231f20"><path d="m493.800781 459h-449.601562c-10 0-18.199219-8.199219-18.199219-18.199219s8.199219-18.199219 18.199219-18.199219h449.601562c10 0 18.199219 8.199219 18.199219 18.199219s-8.199219 18.199219-18.199219 18.199219zm-449.601562-26.601562c-4.597657 0-8.199219 3.800781-8.199219 8.203124 0 4.597657 3.601562 8.199219 8.199219 8.199219h449.601562c4.597657 0 8.199219-3.800781 8.199219-8.199219 0-4.601562-3.601562-8.203124-8.199219-8.203124zm0 0"/><path d="m486.199219 510.398438h-434.597657c-2.800781 0-5-2.199219-5-5v-51.398438c0-2.800781 2.199219-5 5-5h434.597657c2.800781 0 5 2.199219 5 5v51.398438c0 2.800781-2.199219 5-5 5zm-429.597657-10h424.597657v-41.398438h-424.597657zm0 0"/><path d="m385 373.800781h-83.199219c-2.800781 0-5-2.199219-5-5v-77.402343c0-4.597657-3.800781-8.199219-8.199219-8.199219-4.601562 0-8.203124 3.601562-8.203124 8.199219v77.402343c0 2.800781-2.199219 5-5 5h-83.199219c-12.800781 0-23.199219-10.402343-23.199219-23.199219v-141c0-12.800781 10.398438-23.203124 23.199219-23.203124h192.800781c12.800781 0 23.199219 10.402343 23.199219 23.203124v141c0 12.796876-10.398438 23.199219-23.199219 23.199219zm-78.199219-10h78.199219c7.398438 0 13.199219-6 13.199219-13.199219v-141c0-7.402343-6-13.203124-13.199219-13.203124h-192.800781c-7.398438 0-13.199219 6-13.199219 13.203124v141c0 7.398438 6 13.199219 13.199219 13.199219h78.199219v-72.402343c0-10 8.203124-18.199219 18.203124-18.199219s18.199219 8.199219 18.199219 18.199219zm0 0"/><path d="m301.800781 432.398438h-26.601562c-2.800781 0-5-2.199219-5-5v-136c0-10 8.199219-18.199219 18.199219-18.199219s18.203124 8.199219 18.203124 18.199219v136c.199219 2.800781-2 5-4.800781 5zm-21.402343-10h16.601562v-131c0-4.597657-3.800781-8.199219-8.199219-8.199219-4.601562 0-8.199219 3.601562-8.199219 8.199219v131zm0 0"/><path d="m275.398438 432.398438h-22.398438c-8.199219 0-15-6.796876-15-15 0-8.199219 6.800781-15 15-15h22.398438c2.800781 0 5 2.203124 5 5v20c0 2.800781-2.199219 5-5 5zm-22.398438-20c-2.800781 0-5 2.203124-5 5 0 2.800781 2.199219 5 5 5h17.398438v-10zm0 0"/><path d="m326.601562 432.398438h-24.800781c-2.800781 0-5-2.199219-5-5v-20c0-2.796876 2.199219-5 5-5h24.800781c8.199219 0 15 6.800781 15 15 0 8.203124-6.800781 15-15 15zm-19.800781-10h19.800781c2.796876 0 5-2.199219 5-5 0-2.796876-2.203124-5-5-5h-19.800781zm0 0"/><path d="m343.199219 357.800781c-2.800781 0-5-2.199219-5-5v-7c0-2.800781 2.199219-5 5-5s5 2.199219 5 5v7c0 2.800781-2.199219 5-5 5zm0 0"/><path d="m322.800781 357.800781c-2.800781 0-5-2.199219-5-5v-7c0-2.800781 2.199219-5 5-5s5 2.199219 5 5v7c0 2.800781-2.402343 5-5 5zm0 0"/><path d="m363.800781 357.800781c-2.800781 0-5-2.199219-5-5v-7c0-2.800781 2.199219-5 5-5s5 2.199219 5 5v7c0 2.800781-2.199219 5-5 5zm0 0"/><path d="m403.199219 220h-229.199219c-2.800781 0-5-2.199219-5-5v-5.398438c0-12.800781 10.398438-23.203124 23.199219-23.203124h192.800781c12.800781 0 23.199219 10.402343 23.199219 23.203124v5.398438c0 2.800781-2.199219 5-5 5zm-224.199219-10h219.199219v-.398438c0-7.402343-6-13.203124-13.199219-13.203124h-192.800781c-7.398438 0-13.199219 6-13.199219 13.203124zm0 0"/><path d="m210.398438 432.398438h-41.398438c-2.800781 0-5-2.199219-5-5v-.199219c.601562-14.199219 12.601562-25.199219 26.800781-24.597657 13.398438.597657 24 11.199219 24.597657 24.597657 0 2.800781-2.199219 5-5 5.199219zm-35.398438-10h29.199219c-3.199219-8-12.199219-12-20.398438-8.796876-4 1.597657-7.199219 4.796876-8.800781 8.796876zm0 0"/><path d="m256.199219 484.601562c-39.398438 0-71.597657-24.203124-71.597657-53.800781v-3.402343c0-2.796876 2.199219-5 5-5 2.796876 0 5 2.203124 5 5v3.402343c0 24.199219 27.597657 43.800781 61.597657 43.800781s61.601562-19.601562 61.601562-43.800781v-62c0-2.800781 2.199219-5 5-5s5 2.199219 5 5v62c0 29.597657-32.199219 53.800781-71.601562 53.800781zm0 0"/><path d="m441.199219 432.398438h-22.597657c-2.800781 0-5-2.199219-5-5v-59.597657c0-2.800781 2.199219-5 5-5h22.597657c2.800781 0 5 2.199219 5 5v59.597657c0 2.800781-2.398438 5-5 5zm-17.597657-10h12.597657v-49.597657h-12.597657zm0 0"/><path d="m463.601562 432.398438h-22.601562c-2.800781 0-5-2.199219-5-5v-59.597657c0-2.800781 2.199219-5 5-5h22.601562c2.796876 0 5 2.199219 5 5v59.597657c0 2.800781-2.203124 5-5 5zm-17.402343-10h12.601562v-49.597657h-12.601562zm0 0"/><path d="m486.199219 432.398438h-22.597657c-2.800781 0-5-2.199219-5-5v-59.597657c0-2.800781 2.199219-5 5-5h22.597657c2.800781 0 5 2.199219 5 5v59.597657c0 2.800781-2.199219 5-5 5zm-17.597657-10h12.597657v-49.597657h-12.597657zm0 0"/><path d="m474.398438 372.800781h-23.199219c-2.800781 0-5-2.199219-5-5 0-.402343 0-.800781.199219-1.199219l13-53.601562c.601562-2.601562 3.402343-4.398438 6-3.601562l22 5.402343c2.601562.597657 4.402343 3.398438 3.601562 6l-11.601562 48.199219c-.796876 2.398438-2.796876 3.800781-5 3.800781zm-17-10h13l9.601562-39.601562-12.199219-3zm0 0"/><path d="m451 372.800781h-20c-2.800781 0-5-2.199219-5-5v-35.199219c0-8.203124 6.800781-15 15-15s15 6.796876 15 15v35.199219c0 2.800781-2.199219 5-5 5zm-14.800781-10h10v-30.199219c0-2.800781-2.199219-5-5-5s-5 2.199219-5 5zm0 0"/><path d="m441.199219 327.601562c-2.800781 0-5-2.203124-5-5v-6.800781c0-2.800781 2.199219-5 5-5s5 2.199219 5 5v6.800781c0 2.796876-2.398438 5-5 5zm0 0"/><path d="m451 344.398438h-20c-2.800781 0-5-2.199219-5-5v-6.796876c0-8.203124 6.800781-15 15-15s15 6.796876 15 15v6.796876c0 2.800781-2.199219 5-5 5zm-14.800781-10h10v-1.796876c0-2.800781-2.199219-5-5-5s-5 2.199219-5 5zm0 0"/><path d="m287.601562 155.601562h-16.402343c-5.597657 0-10-4.402343-10-10v-98c0-5.601562 4.402343-10 10-10h16.402343c5.597657 0 10 4.398438 10 10v98c0 5.398438-4.402343 10-10 10zm-16.402343-108v98h16.402343v-98zm0 0"/><path d="m314.199219 155.601562h-16.398438c-5.601562 0-10-4.402343-10-10v-98c0-5.601562 4.398438-10 10-10h16.398438c5.601562 0 10 4.398438 10 10v98c0 5.398438-4.597657 10-10 10zm-16.597657-108v98h16.398438v-98zm0 0"/><path d="m340.601562 155.601562h-16.402343c-5.597657 0-10-4.402343-10-10v-98c0-5.601562 4.402343-10 10-10h16.402343c5.597657 0 10 4.398438 10 10v98c0 5.398438-4.402343 10-10 10zm-16.402343-108v98h16.402343v-98zm0 0"/><path d="m367.199219 155.601562h-16.398438c-5.601562 0-10-4.402343-10-10v-98c0-5.601562 4.398438-10 10-10h16.398438c5.601562 0 10 4.398438 10 10v98c0 5.398438-4.398438 10-10 10zm-16.597657-108v98h16.398438v-98zm0 0"/><path d="m426.199219 155.601562c-3.597657 0-6.800781-2-8.597657-5l-49-84.800781c-2.800781-4.800781-1.203124-10.800781 3.597657-13.601562l14.199219-8.199219c4.800781-2.800781 10.800781-1.199219 13.601562 3.601562l49 84.796876c2.800781 4.800781 1.199219 11-3.601562 13.601562l-14.199219 8.199219c-1.597657.800781-3.199219 1.402343-5 1.402343zm-34.800781-103.203124-14.199219 8.203124 49 84.796876 14.199219-8.199219zm-2.398438-4.199219"/><path d="m456.601562 155.601562c-3.601562 0-6.800781-2-8.601562-5l-49-84.800781c-2.800781-4.800781-1.199219-10.800781 3.601562-13.601562l14.199219-8.199219c4.800781-2.800781 10.800781-1.199219 13.597657 3.601562l49 84.796876c2.800781 4.800781 1.203124 11-3.597657 13.601562l-14.199219 8.199219c-1.601562.800781-3.203124 1.402343-5 1.402343zm-34.800781-103.203124-14.199219 8.203124 49 84.796876 14.199219-8.199219zm-2.402343-4.199219"/><path d="m485 175.398438h-235.199219c-14.800781 0-27-12-27-27v-121.398438c0-14.800781 12-27 27-27h235.199219c14.800781 0 27 12 27 27v121.601562c0 14.796876-12 26.796876-27 26.796876zm-235.199219-165.398438c-9.402343 0-17 7.601562-17 17v121.601562c0 9.398438 7.597657 17 17 17h235.199219c9.398438 0 17-7.601562 17-17v-121.601562c0-9.398438-7.601562-17-17-17zm235.199219 145.601562h-235.199219c-3.800781 0-7-3.203124-7-7v-121.601562c0-3.800781 3.199219-7 7-7h235.199219c3.800781 0 7 3.199219 7 7v121.601562c0 3.796876-3 7-7 7zm-232.199219-10h229.199219v-115.601562h-229.199219zm232.199219-115.601562"/><path d="m127.398438 432.398438h-64.199219c-2.800781 0-5-2.199219-5-5 0-13.796876 11.199219-25 25-25h24.402343c13.796876 0 25 11.203124 25 25-.203124 2.800781-2.601562 5-5.203124 5zm-58.398438-10h52.398438c-2.199219-6-7.796876-10-14-10h-24.398438c-6.199219 0-11.800781 4-14 10zm0 0"/><path d="m43 334.601562c-8.199219 0-15-6.800781-15-15 0-8.203124 6.800781-15 15-15s15 6.796876 15 15c-.199219 8.398438-6.800781 15-15 15zm0-20c-2.800781 0-5 2.199219-5 5 0 2.796876 2.199219 5 5 5s5-2.203124 5-5c-.199219-2.601562-2.398438-5-5-5zm0 0"/><path d="m48.199219 316.199219c-2.800781 0-5-2.199219-5-5 0-1 .199219-2 .800781-2.800781l44.199219-66.597657c1.601562-2.402343 4.601562-3 7-1.402343 2.402343 1.601562 3 4.601562 1.402343 7l-44.203124 66.601562c-1 1.398438-2.398438 2.199219-4.199219 2.199219zm0 0"/><path d="m95.199219 412.398438c-1.800781 0-3.398438-1-4.398438-2.398438l-47-79.398438c-1.402343-2.402343-.601562-5.402343 1.800781-6.800781 2.398438-1.402343 5.398438-.601562 6.796876 1.800781l47 79.398438c1.402343 2.398438.601562 5.398438-1.796876 6.800781-.601562.398438-1.402343.597657-2.402343.597657zm0 0"/><path d="m98.398438 262c-2 0-3.597657-1.199219-4.597657-2.800781l-9-18.398438c-4.402343-9.199219-.601562-20 8.597657-24.402343l3-1.398438c9.203124-4.398438 20-.601562 24.402343 8.601562l9 18.398438c1.199219 2.398438.199219 5.398438-2.402343 6.601562l-27 13c-.597657.199219-1.199219.398438-2 .398438zm6-39c-1.199219 0-2.398438.199219-3.597657.800781l-3 1.398438c-4.199219 2-5.800781 7-3.800781 11.199219l6.800781 14 18-8.597657-6.800781-14c-1.398438-3-4.398438-4.800781-7.601562-4.800781zm0 0"/><path d="m101.601562 302c-2.601562 0-4.800781-2-5-4.601562l-3.203124-40c-.199219-2 1-4 2.800781-5l27-13c1.800781-1 4-.597657 5.601562.800781l29.199219 27.601562c2 1.800781 2.199219 5 .199219 7-.398438.398438-1 .800781-1.398438 1l-53 25.597657c-.601562.402343-1.402343.601562-2.199219.601562zm2-42 2.398438 29.398438 39.800781-19.199219-21.402343-20.199219zm0 0"/><path d="m109.199219 146.800781c-35.199219 0-63.597657-28.601562-63.597657-63.601562s28.398438-63.597657 63.597657-63.597657 63.601562 28.398438 63.601562 63.597657c-.199219 35-28.601562 63.402343-63.601562 63.601562zm0-117.199219c-29.597657 0-53.597657 24-53.597657 53.597657 0 29.601562 24 53.601562 53.597657 53.601562 29.601562 0 53.601562-24 53.601562-53.601562-.199219-29.597657-24.199219-53.597657-53.601562-53.597657zm0 0"/><path d="m109.199219 88.199219c-2.800781 0-5-2.199219-5-5v-40.199219c0-2.800781 2.199219-5 5-5s5 2.199219 5 5v40.199219c0 2.800781-2.398438 5-5 5zm0 0"/><path d="m109.199219 34c-2.800781 0-5-2.199219-5-5v-4.398438c0-2.800781 2.199219-5 5-5s5 2.199219 5 5v4.398438c0 2.800781-2.398438 5-5 5zm0 0"/><path d="m109.199219 146.800781c-2.800781 0-5-2.199219-5-5v-4.402343c0-2.796876 2.199219-5 5-5s5 2.203124 5 5v4.402343c0 2.597657-2.398438 5-5 5zm0 0"/><path d="m82 41.199219c-1.800781 0-3.398438-1-4.398438-2.398438l-2.203124-3.800781c-1.398438-2.398438-.597657-5.398438 1.800781-6.800781 2.402343-1.398438 5.402343-.597657 6.800781 1.800781l2.199219 3.800781c1.402343 2.398438.601562 5.398438-1.800781 6.800781-.597657.398438-1.597657.597657-2.398438.597657zm0 0"/><path d="m138.398438 138.800781c-1.796876 0-3.398438-1-4.398438-2.402343l-2.199219-3.796876c-1.402343-2.402343-.601562-5.402343 1.800781-6.800781 2.398438-1.402343 5.398438-.601562 6.796876 1.800781l2.203124 3.796876c1.398438 2.402343.597657 5.402343-1.800781 6.800781-.601562.402343-1.601562.601562-2.402343.601562zm0 0"/><path d="m62.199219 61c-.800781 0-1.800781-.199219-2.398438-.601562l-3.800781-2.199219c-2.398438-1.398438-3.199219-4.398438-1.800781-6.800781 1.402343-2.398438 4.402343-3.199219 6.800781-1.796876l3.800781 2.199219c2.398438 1.398438 3.199219 4.398438 1.800781 6.800781-1 1.597657-2.601562 2.398438-4.402343 2.398438zm0 0"/><path d="m159.800781 117.398438c-.800781 0-1.800781-.199219-2.402343-.597657l-3.796876-2.199219c-2.402343-1.402343-3.203124-4.402343-1.800781-6.800781 1.398438-2.402343 4.398438-3.199219 6.800781-1.800781l3.796876 2.199219c2.402343 1.402343 3.203124 4.402343 1.800781 6.800781-1 1.601562-2.597657 2.398438-4.398438 2.398438zm0 0"/><path d="m54.800781 88.199219h-4.402343c-2.796876 0-5-2.199219-5-5s2.203124-5 5-5h4.402343c2.800781 0 5 2.199219 5 5s-2.199219 5-5 5zm0 0"/><path d="m167.601562 88.199219h-4.402343c-2.800781 0-5-2.199219-5-5s2.199219-5 5-5h4.402343c2.796876 0 5 2.199219 5 5s-2.203124 5-5 5zm0 0"/><path d="m58.398438 117.398438c-2.796876 0-5-2.199219-5-5 0-1.796876 1-3.398438 2.402343-4.398438l3.800781-2.199219c2.398438-1.402343 5.398438-.601562 6.796876 1.800781 1.402343 2.398438.601562 5.398438-1.796876 6.796876l-3.800781 2.203124c-.601562.597657-1.601562.796876-2.402343.796876zm0 0"/><path d="m156 61c-2.800781 0-5-2.199219-5-5 0-1.800781 1-3.398438 2.398438-4.398438l3.800781-2.203124c2.402343-1.398438 5.402343-.597657 6.800781 1.800781 1.398438 2.402343.601562 5.402343-1.800781 6.800781l-3.800781 2.199219c-.597657.601562-1.398438.800781-2.398438.800781zm0 0"/><path d="m79.800781 138.800781c-2.800781 0-5-2.199219-5-5 0-.800781.199219-1.800781.597657-2.402343l2.203124-3.796876c1.398438-2.402343 4.398438-3.203124 6.796876-1.800781 2.402343 1.398438 3.203124 4.398438 1.800781 6.800781l-2.199219 3.796876c-.800781 1.601562-2.398438 2.402343-4.199219 2.402343zm0 0"/><path d="m136.199219 41.199219c-2.800781 0-5-2.199219-5-5 0-.800781.199219-1.800781.601562-2.398438l2.199219-3.800781c1.398438-2.398438 4.398438-3.199219 6.800781-1.800781 2.398438 1.402343 3.199219 4.402343 1.800781 6.800781l-2.203124 3.800781c-.796876 1.398438-2.398438 2.398438-4.199219 2.398438zm0 0"/><path d="m109 88.199219c-.800781 0-1.800781-.199219-2.398438-.597657l-25.800781-15c-2.402343-1.402343-3.199219-4.402343-1.800781-6.800781 1.398438-2.402343 4.398438-3.199219 6.800781-1.800781l25.800781 15c2.398438 1.398438 3.199219 4.398438 1.796876 6.800781-.796876 1.398438-2.597657 2.398438-4.398438 2.398438zm0 0"/><path d="m109.398438 166.398438c-38.398438 0-72-26.199219-81-63.597657-10.796876-44.601562 16.601562-89.601562 61.203124-100.402343 44.597657-10.796876 89.597657 16.601562 100.398438 61.203124.800781 3.597657 1.398438 7.199219 1.800781 10.796876 4.800781 45.800781-28.402343 86.800781-74.199219 91.601562-2.800781.199219-5.402343.398438-8.203124.398438zm-.398438-156.398438c-40.398438 0-73 32.800781-73 73.199219 0 34.800781 24.601562 64.800781 58.800781 71.601562 39.597657 7.800781 78.199219-18 86-57.601562 1.398438-7.199219 1.800781-14.597657 1-21.800781-4-37.199219-35.402343-65.398438-72.800781-65.398438zm0 0"/></g></svg>