<svg height="496pt" viewBox="-88 0 496 496" width="496pt" xmlns="http://www.w3.org/2000/svg" xmlns:xlink="http://www.w3.org/1999/xlink"><linearGradient id="a" gradientUnits="userSpaceOnUse" x1="160" x2="160" y1="496" y2="0"><stop offset="0" stop-color="#9f2fff"/><stop offset="1" stop-color="#0bb1d3"/></linearGradient><path d="m78.304688 193.167969-34.914063 14.953125c-26.359375 11.304687-43.390625 37.136718-43.390625 65.816406 0 4.527344.433594 9.078125 1.289062 13.519531l36.359376 189.070313c2.167968 11.28125 12.078124 19.472656 23.566406 19.472656h197.570312c11.488282 0 21.390625-8.183594 23.566406-19.472656l36.359376-189.070313c.855468-4.441406 1.289062-8.984375 1.289062-13.519531 0-28.679688-17.03125-54.511719-43.398438-65.816406l-34.90625-14.953125c-20.472656-8.769531-33.695312-28.832031-33.695312-51.105469v-46.0625h8c8.824219 0 16-7.175781 16-16v-32c0-8.824219-7.175781-16-16-16h-8v-16c0-8.824219-7.175781-16-16-16h-64c-8.824219 0-16 7.175781-16 16v16h-8c-8.824219 0-16 7.175781-16 16v32c0 8.824219 7.175781 16 16 16h8v46.0625c0 22.273438-13.222656 42.335938-33.695312 51.105469zm192 29.664062c20.472656 8.769531 33.695312 28.832031 33.695312 51.105469 0 3.511719-.335938 7.054688-1 10.503906l-36.359375 189.070313c-.71875 3.761719-4.023437 6.488281-7.855469 6.488281h-197.570312c-3.832032 0-7.136719-2.726562-7.855469-6.488281l-36.359375-189.070313c-.664062-3.449218-1-6.984375-1-10.503906 0-22.273438 13.222656-42.335938 33.695312-51.113281l32.648438-13.984375c5.519531 14.96875 23.640625 47.160156 77.65625 47.160156 54.023438 0 72.136719-32.191406 77.65625-47.160156zm-46.816407-21.648437c-2.617187 9.039062-14.894531 38.816406-63.488281 38.816406-48.585938 0-60.871094-29.769531-63.480469-38.808594 14.433594-9.785156 24.703125-24.40625 29.046875-41.191406h68.867188c4.34375 16.785156 14.621094 31.40625 29.054687 41.183594zm-95.488281-59.121094v-14.0625h64v14.0625c0 .65625.128906 1.289062.144531 1.9375h-64.289062c.015625-.65625.144531-1.28125.144531-1.9375zm0-126.0625h64v16h-64zm-24 32h112l.007812 32h-112.007812zm88 48v16h-64v-16zm65.695312 156.238281 6.296876-14.703125c14.582031 6.242188 24.007812 20.527344 24.007812 36.402344 0 2.476562-.230469 4.984375-.703125 7.453125l-7.710937 40.121094-15.714844-3.015625 7.714844-40.097656c.269531-1.46875.414062-2.972657.414062-4.460938 0-9.449219-5.617188-17.96875-14.304688-21.699219zm-97.695312-76.238281c-13.230469 0-24 10.769531-24 24s10.769531 24 24 24 24-10.769531 24-24-10.769531-24-24-24zm0 32c-4.40625 0-8-3.585938-8-8s3.59375-8 8-8 8 3.585938 8 8-3.59375 8-8 8zm64 80h-128c-13.230469 0-24 10.769531-24 24v96c0 13.230469 10.769531 24 24 24h128c13.230469 0 24-10.769531 24-24v-96c0-13.230469-10.769531-24-24-24zm8 120c0 4.414062-3.59375 8-8 8h-128c-4.40625 0-8-3.585938-8-8v-96c0-4.414062 3.59375-8 8-8h128c4.40625 0 8 3.585938 8 8zm0 0" fill="url(#a)"/></svg>