<svg height="467pt" viewBox="-43 0 467 467.484" width="467pt" xmlns="http://www.w3.org/2000/svg"><path d="m146.183594 0c-51.007813.0546875-92.34375 41.390625-92.398438 92.398438v46.441406c1.960938.175781 3.914063-.453125 5.402344-1.746094 1.484375-1.292969 2.382812-3.132812 2.480469-5.101562l1.625-35.726563c.074219-1.597656.777343-3.097656 1.960937-4.171875s2.746094-1.632812 4.339844-1.550781c16.945312.496093 33.902344-.378907 50.707031-2.621094 25.671875-3.375 61.640625-11.515625 87.207031-31.121094 1.699219-1.359375 3.996094-1.691406 6.007813-.875 2.011719.820313 3.425781 2.664063 3.695313 4.820313.265624 2.15625-.652344 4.289062-2.402344 5.574218-12.652344 9.699219-28.246094 17.53125-46.601563 23.433594 10.457031 9.460938 33.621094 26.070313 70.378907 30.039063v-27.394531c-.054688-51.007813-41.390626-92.3437505-92.402344-92.398438zm0 0"/><path d="m230.382812 203.441406c.039063-.191406.082032-.378906.136719-.566406l4.9375-16.984375c.417969-2.511719 2.375-4.488281 4.882813-4.925781 5.105468-.90625 9.605468-3.886719 12.433594-8.226563 2.832031-4.34375 3.738281-9.660156 2.511718-14.695312-1.175781-4.835938-5.085937-8.527344-9.984375-9.421875-.160156.019531-.320312.039062-.488281.042968-.882812.035157-22.042969.773438-50.46875-4.769531-25.785156-5.027343-62.476562-16.402343-92.289062-42.070312-11.761719.847656-21.28125.9375-27.042969.863281l-1.359375 29.847656c-.273438 6.480469-3.804688 12.378906-9.390625 15.675782-5.582031 3.296874-12.453125 3.546874-18.257813.65625-4.449218 1.175781-7.890625 4.699218-8.957031 9.175781-1.230469 5.035156-.324219 10.355469 2.503906 14.695312 2.832031 4.34375 7.332031 7.320313 12.4375 8.226563 2.507813.4375 4.464844 2.414062 4.882813 4.925781l4.9375 16.984375c.054687.183594.101562.375.136718.566406 7.625 40.503906 43.003907 69.839844 84.21875 69.839844 41.214844 0 76.59375-29.335938 84.21875-69.839844zm0 0"/><path d="m238.585938 131.875c-48.527344-4.792969-75.488282-29.488281-83.6875-38.3125-10.953126 2.753906-22.058594 4.851562-33.261719 6.285156-.800781.101563-1.59375.203125-2.378907.300782 44.5 32.351562 101.277344 36.164062 119.328126 36.523437zm0 0"/><path d="m108.398438 304.269531c23.859374 11.515625 51.671874 11.515625 75.53125 0v-26.570312c-24.15625 10.136719-51.375 10.136719-75.53125 0zm0 0"/><path d="m305.371094 250.199219-65.8125 51.1875c9.308594 12.65625 19.304687 24.792969 29.949218 36.347656 2.179688 2.367187 2.105469 6.03125-.167968 8.304687l-104.800782 104.800782 2.773438 13.871094 13.871094 2.773437 10.238281-10.242187c1.289063-1.28125 3.082031-1.914063 4.886719-1.722657l9.433594 1.019531-.785157-9.851562c-.132812-1.6875.453125-3.351562 1.613281-4.585938 1.15625-1.242187 2.785157-1.929687 4.480469-1.886718l10.890625.199218-1.433594-8.714843c-.3125-1.90625.3125-3.847657 1.679688-5.214844l63.796875-63.796875c2.277344-2.277344 5.941406-2.351562 8.308594-.171875 11.554687 10.644531 23.691406 20.640625 36.347656 29.949219l51.109375-65.714844c-9.542969-6.507812-27.363281-19.308594-40.765625-32.710938-13.667969-13.660156-28.132813-33.261718-35.613281-43.839843zm50.09375 76.054687c2.390625 2.089844 2.738281 5.6875.785156 8.199219l-11.726562 15.074219c-1.78125 2.292968-4.949219 2.980468-7.519532 1.632812l-35.179687-18.425781c-1.082031-.570313-1.964844-1.453125-2.53125-2.53125l-18.429688-35.179687c-1.347656-2.574219-.660156-5.738282 1.632813-7.519532l15.078125-11.730468c2.507812-1.949219 6.105469-1.605469 8.199219.789062l11.058593 12.636719c8.078125 9.230469 16.761719 17.914062 25.992188 25.992187zm0 0"/><path d="m256.808594 341.601562c-2.140625-2.386718-4.253906-4.796874-6.339844-7.234374l-59.925781-19.984376c-27.933594 14.027344-60.855469 14.023438-88.785157-.015624l-69.964843 22.6875c-14.863281 4.816406-26.109375 16.34375-30.089844 30.84375-.15625.570312-.304687 1.140624-.4375 1.714843-.710937 3.179688-1.054687 6.425781-1.019531 9.683594v43.398437h175.464844zm0 0"/><path d="m307.800781 297.101562-7.332031-8.378906-6.648438 5.171875 15.230469 29.074219 29.078125 15.230469 5.171875-6.648438-8.378906-7.328125c-9.628906-8.433594-18.691406-17.492187-27.121094-27.121094zm0 0"/></svg>