<svg id="icons" enable-background="new 0 0 64 64" height="512" viewBox="0 0 64 64" width="512" xmlns="http://www.w3.org/2000/svg"><path d="m25.003 3.994c-11.6 0-21.01 9.41-21 21 0 11.599 9.4 21 21 21 11.59 0 21-9.4 21-20.99 0-11.6-9.41-21.01-21-21.01z" fill="#4a89dc"/><path d="m48.833 46.003-2.83 2.83-5.51-5.51c.51-.42 1-.87 1.48-1.35.479-.48.93-.971 1.35-1.48z" fill="#ccd1d9"/><path d="m46.003 48.833 2.83-2.83 1.41-1.41 11.58 11.58c1.57 1.561 1.57 4.09 0 5.65-1.561 1.57-4.09 1.57-5.65 0l-11.58-11.58z" fill="#656d78"/><path d="m8.033 41.974c-9.38-9.38-9.38-24.57 0-33.94 9.37-9.38 24.56-9.38 33.94 0 8.89 8.89 9.35 23.03 1.35 32.459-.42.51-.87 1-1.35 1.48-.48.479-.971.93-1.48 1.35-9.43 8-23.57 7.54-32.46-1.349zm-4.03-16.98c0 11.599 9.4 21 21 21 11.59 0 21-9.4 21-20.99 0-11.6-9.41-21.01-21-21.01-11.6 0-21.01 9.41-21 21z" fill="#e6e9ed"/><path d="m25.394 30.763 4.609-5.769 7.99 9.999h-15.98z" fill="#fff"/><path d="m25.394 30.763-3.381 4.23h-5.01l6-6.999z" fill="#e6e9ed"/><circle cx="17.503" cy="20.494" fill="#ffce54" r="1.5"/><path d="m38.003 14.994v20h-.01l-7.99-10-4.609 5.77-2.391-2.77-6 7h-5v-20zm-19 5.5c0-.83-.67-1.5-1.5-1.5s-1.5.67-1.5 1.5.67 1.5 1.5 1.5 1.5-.67 1.5-1.5z" fill="#87bcf4"/><path d="m25.001 46.999c-12.132 0-22.001-9.869-22.001-22.001-.001-5.875 2.287-11.399 6.442-15.555s9.68-6.444 15.556-6.444c12.132 0 22.002 9.87 22.002 22.001 0 12.13-9.869 21.999-21.999 21.999zm-.001-42c-5.343 0-10.365 2.081-14.144 5.858-3.777 3.778-5.857 8.8-5.856 14.141 0 11.028 8.973 20.001 20.001 20.001 11.027 0 19.999-8.972 19.999-19.999 0-11.029-8.972-20.001-20-20.001z"/><path d="m25 49.998c-6.678 0-12.956-2.6-17.678-7.321s-7.321-11-7.322-17.678c0-6.678 2.601-12.956 7.322-17.677 4.723-4.722 11.001-7.322 17.678-7.322 6.678 0 12.956 2.6 17.678 7.322 9.747 9.747 9.747 25.607 0 35.354-4.723 4.722-11.001 7.322-17.678 7.322zm0-47.998c-6.143 0-11.919 2.392-16.264 6.736-4.343 4.344-6.736 10.119-6.736 16.263.001 6.144 2.393 11.92 6.736 16.264s10.12 6.735 16.264 6.735c6.143 0 11.919-2.392 16.264-6.735 8.967-8.968 8.967-23.559 0-32.526-4.344-4.345-10.12-6.737-16.264-6.737z"/><path d="m46.006 49.834c-.256 0-.512-.098-.707-.293l-5.508-5.509c-.391-.391-.391-1.023 0-1.414s1.023-.391 1.414 0l5.508 5.509c.391.391.391 1.023 0 1.414-.195.195-.451.293-.707.293z"/><path d="m48.834 47.006c-.256 0-.512-.098-.707-.293l-5.514-5.515c-.391-.391-.391-1.023 0-1.414s1.023-.391 1.414 0l5.514 5.515c.391.391.391 1.023 0 1.414-.195.195-.451.293-.707.293z"/><path d="m44.592 51.248c-.256 0-.512-.098-.707-.293-.391-.391-.391-1.023 0-1.414l5.656-5.658c.391-.391 1.023-.391 1.414 0s.391 1.023 0 1.414l-5.656 5.658c-.195.195-.451.293-.707.293z"/><path d="m56.172 62.828c-.256 0-.512-.098-.707-.293l-11.58-11.58c-.391-.391-.391-1.023 0-1.414s1.023-.391 1.414 0l11.58 11.58c.391.391.391 1.023 0 1.414-.195.195-.451.293-.707.293z"/><path d="m61.828 57.173c-.256 0-.512-.098-.707-.293l-11.58-11.583c-.391-.391-.391-1.023 0-1.414s1.023-.391 1.414 0l11.58 11.583c.391.391.391 1.023 0 1.414-.195.195-.451.293-.707.293z"/><path d="m59.001 64c-1.336 0-2.592-.521-3.536-1.465-.391-.391-.391-1.023 0-1.414s1.023-.391 1.414 0c1.132 1.133 3.109 1.135 4.241 0 .567-.566.88-1.32.88-2.122 0-.801-.312-1.553-.878-2.118-.392-.391-.392-1.023-.002-1.414.391-.393 1.025-.391 1.414-.002.945.943 1.466 2.198 1.466 3.534s-.521 2.592-1.465 3.536c-.943.944-2.198 1.465-3.534 1.465z"/><path d="m38.001 35.998h-25.998c-.553 0-1-.447-1-1v-20c0-.552.447-1 1-1h25.998c.553 0 1 .448 1 1v20c0 .553-.447 1-1 1zm-24.998-2h23.998v-18h-23.998z"/><path d="m38.002 36.002c-.294 0-.585-.129-.782-.376l-7.995-10.007c-.345-.431-.274-1.061.157-1.405.433-.346 1.062-.274 1.405.157l7.995 10.007c.345.432.274 1.061-.157 1.405-.185.148-.404.219-.623.219z"/><path d="m22.008 36.002c-.219 0-.438-.071-.623-.219-.432-.345-.502-.974-.157-1.405l7.995-10.007c.345-.431.974-.502 1.405-.157.432.345.502.974.157 1.405l-7.995 10.007c-.197.247-.488.376-.782.376z"/><path d="m25.391 31.776c-.281 0-.562-.119-.759-.349l-2.384-2.781c-.36-.419-.312-1.051.108-1.41.419-.358 1.051-.311 1.409.108l2.384 2.781c.36.419.312 1.051-.108 1.41-.188.162-.42.241-.65.241z"/><path d="m17.006 35.995c-.23 0-.462-.079-.65-.24-.42-.36-.469-.991-.109-1.41l6-7.001c.361-.419.992-.466 1.41-.108.42.359.469.991.109 1.41l-6 7c-.199.231-.479.349-.76.349z"/><path d="m17.506 22.994c-1.379 0-2.5-1.122-2.5-2.5s1.121-2.5 2.5-2.5 2.5 1.122 2.5 2.5-1.121 2.5-2.5 2.5zm0-3c-.275 0-.5.224-.5.5s.225.5.5.5.5-.224.5-.5-.225-.5-.5-.5z"/></svg>