<svg id="Layer_5" enable-background="new 0 0 64 64" height="512" viewBox="0 0 64 64" width="512" xmlns="http://www.w3.org/2000/svg"><g><g><g><path d="m23.39 58h-.057c-1.286 0-2.333-1.047-2.333-2.333 0-4.462 2.377-8.659 6.202-10.954l1.188-.713h.277c3.492 0 6.333 2.841 6.333 6.333v.236l-.185.369c-2.177 4.356-6.555 7.062-11.425 7.062z" fill="#f0bc5e"/></g></g><g><g><path d="m43.667 47h-.057c-4.87 0-9.248-2.706-11.426-7.062l-.184-.369v-.236c0-3.492 2.841-6.333 6.333-6.333h.277l1.188.713c3.825 2.295 6.202 6.492 6.202 10.954 0 1.286-1.047 2.333-2.333 2.333z" fill="#f0bc5e"/></g></g><g><path d="m62.844 40.537-1.688-1.074c-.018.029-1.672 2.616-3.801 5.32-1.498-1.115-3.348-1.783-5.355-1.783h-.277l-.723.434v-12.962c0-2.928-1.518-5.581-4-7.064v-2.408c1.103 0 2-.897 2-2v-2c0-1.103-.897-2-2-2h-2c0-.356-.062-.696-.15-1.025l3.892-8.76c.67-1.512-.013-3.286-1.518-3.954-.386-.173-.798-.261-1.223-.261-1.184 0-2.26.699-2.743 1.782l-1.228 2.763c-.462-.601-1.063-1.099-1.783-1.419l-7.715-3.428-.638 1.277c-.933 1.866-2.808 3.025-4.894 3.025-1.512 0-2.814.852-3.494 2.092l-6.506-6.506-8.414 8.414 5.414 5.414 7-7 2.047 2.047c.076.651.29 1.261.641 1.779-1.56.546-2.688 2.016-2.688 3.76h-2c-1.103 0-2 .897-2 2v2c0 1.103.897 2 2 2v2.408c-.727.435-1.36.979-1.907 1.592h-9.093c-3.859 0-7 3.14-7 7v10c0 3.859 3.141 7 7 7h5c.732 0 1.409-.212 2-.556v6.32c0 4.542 3.694 8.236 8.236 8.236h20.764.084c7.114 0 13.511-3.953 16.692-10.316l.224-.448v-.236c0-2.234-.823-4.275-2.174-5.85 2.236-2.823 3.941-5.492 4.018-5.613zm-48.844-28.951-2.586-2.586 5.586-5.586 2.586 2.586zm31.085-7.991c.219-.491.824-.734 1.324-.507.502.223.728.814.505 1.317l-3.354 7.548c-.438-.369-.951-.643-1.519-.798.593-.779.959-1.739.959-2.792 0-.022-.004-.043-.005-.064zm-18.085 3.405c2.686 0 5.116-1.407 6.453-3.704l5.981 2.658c.952.423 1.566 1.369 1.566 2.409 0 1.454-1.183 2.637-2.637 2.637h-11.363c-1.103 0-2-.897-2-2s.897-2 2-2zm-2 6h2 11.363 2.637c1.103 0 2 .897 2 2h-20c0-1.103.897-2 2-2zm-6 4h28l.001 2h-28.001zm-9.444 26h-.556c-1.103 0-2-.897-2-2v-8c0-1.103.897-2 2-2h6v10.556c-.591-.344-1.268-.556-2-.556-1.474 0-2.75.81-3.444 2zm3.444 4h-5c-2.757 0-5-2.243-5-5v-10c0-2.757 2.243-5 5-5h7.777c-.293.632-.505 1.301-.63 2h-6.147c-2.206 0-4 1.794-4 4v8c0 2.206 1.794 4 4 4h1 1c0-1.103.897-2 2-2s2 .897 2 2-.897 2-2 2zm4 7.764v-24.292c0-2.377 1.321-4.515 3.447-5.578l.553-.276v-3.618h24v3.618l.553.276c2.126 1.063 3.447 3.2 3.447 5.578v14.215c-4.964 3.463-8 9.219-8 15.313 0 .352.072.686.184 1h-17.948c-3.438 0-6.236-2.798-6.236-6.236zm27.084 6.236h-.084c-.552 0-1-.448-1-1 0-4.338 1.724-8.483 4.668-11.552l1.042.26-1.098 3.292h4.388v4.388l3.292-1.098.282 1.129c-3.039 2.903-7.112 4.581-11.49 4.581zm14.903-9.211c-.51 1.021-1.116 1.969-1.799 2.842l-.48-1.922-2.708.903v-3.612h-3.612l.902-2.708-1.829-.457c.518-.403 1.06-.781 1.629-1.122l1.179-.708c3.66.139 6.609 3.102 6.728 6.767z"/><path d="m45 53h2v2h-2z"/><path d="m47 57h2v2h-2z"/><path d="m23.964 50.5h7.071v2h-7.071z" transform="matrix(.707 -.707 .707 .707 -28.361 34.529)"/><path d="m38.5 36.964h2v7.071h-2z" transform="matrix(.707 -.707 .707 .707 -17.069 39.793)"/><path d="m31 25h-4c-1.103 0-2 .897-2 2v2h-2c-1.103 0-2 .897-2 2v4c0 1.103.897 2 2 2h4c1.103 0 2-.897 2-2v-2h2c1.103 0 2-.897 2-2v-4c0-1.103-.897-2-2-2zm-8 10v-4h4l.002 4zm8-4h-2c0-1.103-.897-2-2-2v-2h4z"/></g><g><g><path d="m23 45h-2c-1.103 0-2-.897-2-2v-2c0-1.103.897-2 2-2h2c1.103 0 2 .897 2 2v2c0 1.103-.897 2-2 2z" fill="#f0bc5e"/></g></g><g><g><path d="m41 29h-2c-1.103 0-2-.897-2-2v-2c0-1.103.897-2 2-2h2c1.103 0 2 .897 2 2v2c0 1.103-.897 2-2 2z" fill="#f0bc5e"/></g></g></g></svg>