<svg height="454pt" viewBox="-67 0 454 454.656" width="454pt" xmlns="http://www.w3.org/2000/svg"><path d="m139.929688 294.65625h24.796874c6.40625-.003906 11.597657-5.195312 11.601563-11.601562v-12.398438h-48v12.398438c.003906 6.40625 5.195313 11.597656 11.601563 11.601562zm0 0"/><path d="m320.328125 38.65625h-320v416h320zm-56 16c4.417969 0 8 3.582031 8 8s-3.582031 8-8 8-8-3.582031-8-8 3.582031-8 8-8zm0 320h-208c-4.417969 0-8-3.582031-8-8s3.582031-8 8-8h208c4.417969 0 8 3.582031 8 8s-3.582031 8-8 8zm8 16c0 4.417969-3.582031 8-8 8h-208c-4.417969 0-8-3.582031-8-8s3.582031-8 8-8h208c4.417969 0 8 3.582031 8 8zm-8-40h-208c-4.417969 0-8-3.582031-8-8s3.582031-8 8-8h208c4.417969 0 8 3.582031 8 8s-3.582031 8-8 8zm-142.496094-123.320312c-5.847656-7.4375-5.847656-17.90625 0-25.34375 1.160157-1.601563 1.375-1.914063 1.375-3.335938h16c.054688 4.605469-1.492187 9.085938-4.382812 12.671875-1.160157 1.601563-1.375 1.910156-1.375 3.335937 0 1.425782.214843 1.710938 1.375 3.328126 5.847656 7.4375 5.847656 17.90625 0 25.34375-1.160157 1.601562-1.375 1.902343-1.375 3.320312h-16c-.054688-4.601562 1.496093-9.082031 4.382812-12.664062 1.160157-1.601563 1.375-1.902344 1.375-3.320313 0-1.414063-.214843-1.710937-1.375-3.335937zm-1.503906 27.320312h64c4.417969 0 8 3.582031 8 8v8h8c4.417969 0 8 3.582031 8 8s-3.582031 8-8 8h-8.359375c-1.78125 13.695312-13.429688 23.957031-27.242188 24h-24.796874c-15.238282-.011719-27.589844-12.363281-27.601563-27.601562v-20.398438c0-4.417969 3.582031-8 8-8zm25.503906-27.320312c-5.847656-7.4375-5.847656-17.90625 0-25.34375 1.160157-1.601563 1.375-1.914063 1.375-3.335938h16c.054688 4.605469-1.492187 9.085938-4.382812 12.671875-1.160157 1.601563-1.375 1.910156-1.375 3.335937 0 1.425782.214843 1.710938 1.375 3.328126 5.847656 7.4375 5.847656 17.90625 0 25.34375-1.160157 1.601562-1.375 1.902343-1.375 3.320312h-16c-.054688-4.601562 1.496093-9.082031 4.382812-12.664062 1.160157-1.601563 1.375-1.902344 1.375-3.320313 0-1.414063-.214843-1.710937-1.375-3.335937zm36.992188-9.34375c5.847656 7.4375 5.847656 17.90625 0 25.34375-1.160157 1.601562-1.375 1.902343-1.375 3.320312h-16c-.054688-4.601562 1.496093-9.082031 4.382812-12.664062 1.160157-1.601563 1.375-1.902344 1.375-3.320313 0-1.414063-.214843-1.710937-1.375-3.335937-5.847656-7.4375-5.847656-17.90625 0-25.34375 1.160157-1.601563 1.375-1.914063 1.375-3.335938h16c.054688 4.605469-1.492187 9.085938-4.382812 12.671875-1.160157 1.601563-1.375 1.910156-1.375 3.335937 0 1.425782.214843 1.710938 1.375 3.328126zm-6.496094-81.449219v38.113281h-16v-72c-.042969-3.746094 2.519531-7.019531 6.167969-7.878906 3.644531-.855469 7.398437.929687 9.03125 4.300781l16.800781 33.691406v-38.113281h16v72c0 3.707031-2.550781 6.929688-6.160156 7.785156-3.613281.855469-7.339844-.886718-9-4.210937zm72 22.113281v-64h16v72c0 4.417969-3.582031 8-8 8h-32c-4.417969 0-8-3.582031-8-8v-72h16v64zm-112-104h80c4.417969 0 8 3.582031 8 8s-3.582031 8-8 8h-80c-4.417969 0-8-3.582031-8-8s3.582031-8 8-8zm-16 40h32v16h-24v16h24v16h-24v16h24v16h-32c-4.417969 0-8-3.582031-8-8v-64c0-4.417969 3.582031-8 8-8zm-16-40c4.417969 0 8 3.582031 8 8s-3.582031 8-8 8-8-3.582031-8-8 3.582031-8 8-8zm-32.800781 44.421875 8.800781 17.691406 8.839844-17.691406c1.65625-3.320313 5.382812-5.070313 8.996093-4.214844 3.613282.851563 6.167969 4.078125 6.164063 7.792969v72h-16v-38.113281l-.839844 1.6875c-1.355469 2.71875-4.125 4.433593-7.160156 4.433593s-5.808594-1.714843-7.160156-4.433593l-.839844-1.6875v38.113281h-16v-72c-.003906-3.714844 2.550781-6.941406 6.164063-7.792969 3.613281-.855469 7.339843.894531 8.996093 4.214844zm-39.199219 331.578125c0 4.417969-3.582031 8-8 8s-8-3.582031-8-8v-80c0-4.417969 3.582031-8 8-8s8 3.582031 8 8zm-8-120c-4.417969 0-8-3.582031-8-8s3.582031-8 8-8 8 3.582031 8 8-3.582031 8-8 8zm8-40c0 4.417969-3.582031 8-8 8s-8-3.582031-8-8v-80c0-4.417969 3.582031-8 8-8s8 3.582031 8 8zm-8-120c-4.417969 0-8-3.582031-8-8s3.582031-8 8-8 8 3.582031 8 8-3.582031 8-8 8zm8-40c0 4.417969-3.582031 8-8 8s-8-3.582031-8-8v-48.242188c.039063-1.074218.285156-2.132812.71875-3.117187l.082031-.082031c.363282-.832032.878906-1.59375 1.519532-2.238282.714843-.652343 1.523437-1.191406 2.398437-1.601562.046875 0 .082031-.035156.082031-.078125.957032-.417969 1.992188-.636719 3.039063-.640625h32.160156c4.417969 0 8 3.582031 8 8s-3.582031 8-8 8h-24zm24 328c-4.417969 0-8-3.582031-8-8s3.582031-8 8-8 8 3.582031 8 8-3.582031 8-8 8zm128 0h-80c-4.417969 0-8-3.582031-8-8s3.582031-8 8-8h80c4.417969 0 8 3.582031 8 8s-3.582031 8-8 8zm32 0c-4.417969 0-8-3.582031-8-8s3.582031-8 8-8 8 3.582031 8 8-3.582031 8-8 8zm88-8.417969v.082031l-.398437.085938.398437.082031v.167969h-.398437l.398437.167969c-.136719 2.007812-.957031 3.910156-2.320313 5.390625-1.335937 1.378906-3.125 2.230468-5.039062 2.402344h-32.640625c-4.417969 0-8-3.582032-8-8 0-4.417969 3.582031-8 8-8h24v-42.898438c0-4.417969 3.582031-8 8-8s8 3.582031 8 8zm-8-71.582031c-4.417969 0-8-3.582031-8-8s3.582031-8 8-8 8 3.582031 8 8-3.582031 8-8 8zm8-56c0 4.417969-3.582031 8-8 8s-8-3.582031-8-8v-80c0-4.417969 3.582031-8 8-8s8 3.582031 8 8zm-8-104c-4.417969 0-8-3.582031-8-8s3.582031-8 8-8 8 3.582031 8 8-3.582031 8-8 8zm8-56c0 4.417969-3.582031 8-8 8s-8-3.582031-8-8v-80c0-4.417969 3.582031-8 8-8s8 3.582031 8 8zm0 0"/><path d="m95.34375 22.65625h144.984375v-22.65625zm0 0"/></svg>