<?xml version="1.0" encoding="iso-8859-1"?>
<!-- Generator: Adobe Illustrator 19.0.0, SVG Export Plug-In . SVG Version: 6.00 Build 0)  -->
<svg version="1.1" id="Capa_1" xmlns="http://www.w3.org/2000/svg" xmlns:xlink="http://www.w3.org/1999/xlink" x="0px" y="0px"
	 viewBox="0 0 423.184 423.184" style="enable-background:new 0 0 423.184 423.184;" xml:space="preserve">
<g>
	<path style="fill:#4DCFE0;" d="M287.347,399.673H256v-67.918h-94.041v67.918h-31.347v-83.592c0-8.882,6.792-15.673,15.673-15.673
		h125.388c8.882,0,15.673,6.792,15.673,15.673V399.673z"/>
	<path style="fill:#4DCFE0;" d="M271.673,263.837H146.286c-8.882,0-15.673-6.792-15.673-15.673s6.792-15.673,15.673-15.673h125.388
		c8.882,0,15.673,6.792,15.673,15.673S280.555,263.837,271.673,263.837z"/>
</g>
<path style="fill:#1185E0;" d="M420.571,121.208L357.355,20.376c-2.612-4.702-7.837-7.314-13.061-7.314H78.89
	c-5.224,0-10.449,2.612-13.061,7.314L2.612,121.208C1.045,123.82,0,126.433,0,129.567v264.882c0,8.882,6.792,15.673,15.673,15.673
	H407.51c8.882,0,15.673-6.792,15.673-15.673V129.567C423.184,126.433,422.139,123.82,420.571,121.208z M381.388,117.551H227.265
	V44.408h108.147L381.388,117.551z M87.771,44.408h108.147v73.143H41.796L87.771,44.408z M31.347,378.776V148.898h360.49v229.878
	H31.347z"/>
<g>
</g>
<g>
</g>
<g>
</g>
<g>
</g>
<g>
</g>
<g>
</g>
<g>
</g>
<g>
</g>
<g>
</g>
<g>
</g>
<g>
</g>
<g>
</g>
<g>
</g>
<g>
</g>
<g>
</g>
</svg>
