<svg height="512" viewBox="0 0 192 192" width="512" xmlns="http://www.w3.org/2000/svg"><g id="_06-meal" data-name="06-meal"><g id="Glyph"><path d="m64 40a8.009 8.009 0 0 1 8-8h16a24.027 24.027 0 0 0 24-24v-8h-16v8a8.009 8.009 0 0 1 -8 8h-16a24.027 24.027 0 0 0 -24 24v8h16z"/><path d="m112 48h16v-8a8.009 8.009 0 0 1 8-8h16a24.027 24.027 0 0 0 24-24v-8h-16v8a8.009 8.009 0 0 1 -8 8h-16a24.027 24.027 0 0 0 -24 24z"/><path d="m0 176h192v16h-192z"/><path d="m106.872 96.683 4.717-14.153a7.947 7.947 0 0 0 -2.933-9.022 3.954 3.954 0 0 0 -3.128-1.508h-19.056a3.954 3.954 0 0 0 -3.128 1.508 7.947 7.947 0 0 0 -2.933 9.022l4.717 14.153a88.2 88.2 0 0 0 -75.666 71.317h173.076a88.2 88.2 0 0 0 -75.666-71.317zm21.128 47.317a8 8 0 1 1 8-8 8 8 0 0 1 -8 8z"/></g></g></svg>